<svg width="70" height="12" viewBox="0 0 70 12" fill="none" xmlns="http://www.w3.org/2000/svg">
<g clip-path="url(#clip0_779_79143)">
<path d="M36.2093 2.89648H34.1824L30.8008 9.10338C31.2062 9.10338 31.7203 8.75797 31.9576 8.32883L32.1257 8.02529C32.2543 7.85781 32.4718 7.72174 32.6498 7.72174H36.417C36.5851 7.74268 36.7729 7.85781 36.8916 8.01482L37.0597 8.32883C37.297 8.75797 37.8111 9.10338 38.2165 9.10338H39.6008L36.2093 2.89648ZM36.15 7.34493H32.3235L34.4197 3.4931L36.3082 6.95766C36.417 7.167 36.3477 7.34493 36.15 7.34493Z" fill="#424242"/>
<path d="M57.4085 2.89648H55.3816L52 9.10338C52.4054 9.10338 52.9196 8.75797 53.1569 8.32883L53.3249 8.02529C53.4535 7.85781 53.671 7.72174 53.849 7.72174H57.6162C57.7843 7.74268 57.9721 7.85781 58.0908 8.01482L58.2589 8.32883C58.4962 8.75797 59.0103 9.10338 59.4157 9.10338H60.8L57.4085 2.89648ZM57.3492 7.34493H53.5227L55.6189 3.4931L57.5074 6.95766C57.6261 7.167 57.547 7.34493 57.3492 7.34493Z" fill="#424242"/>
<path d="M48.2849 6.55991C48.1879 6.1831 47.8579 5.89003 47.4503 5.81676V5.78536C47.7123 5.71209 47.8385 5.42948 47.8385 5.42948C48.1005 4.7282 48.0908 3.94318 47.8288 3.24189C47.8288 3.24189 47.6929 2.89648 47.3144 2.89648H41.2002V6.00517V8.32883C41.2002 8.75797 41.5205 9.10338 41.9184 9.10338H47.2659C47.7414 9.10338 48.1685 8.77891 48.2752 8.34976C48.4402 7.76361 48.4402 7.14606 48.2849 6.55991ZM46.6059 7.94155C46.6059 8.3707 46.2857 8.7161 45.8878 8.7161H42.6463V6.96812C42.6463 6.54945 42.9665 6.19357 43.3741 6.19357H45.8975C46.2954 6.19357 46.6156 6.53898 46.6156 6.96812V7.94155H46.6059ZM46.3148 5.03174C46.3148 5.46089 45.9945 5.80629 45.5966 5.80629H43.3644C42.9665 5.80629 42.6463 5.46089 42.6463 5.03174V3.28376H45.9557C46.1498 3.28376 46.3148 3.4617 46.3148 3.67104V5.03174Z" fill="#424242"/>
<path fill-rule="evenodd" clip-rule="evenodd" d="M51.2006 9.10347C51.2006 9.56199 50.8438 9.93105 50.4006 9.93105C49.9573 9.93105 49.6006 9.56199 49.6006 9.10347C49.6006 8.64494 49.9573 8.27588 50.4006 8.27588C50.833 8.27588 51.2006 8.64494 51.2006 9.10347Z" fill="#424242"/>
<path fill-rule="evenodd" clip-rule="evenodd" d="M64.9987 8.70564C64.8722 8.6847 64.7749 8.58003 64.7749 8.4335C64.7749 8.34976 64.8139 8.26603 64.8722 8.21369L69.4647 4.22579C69.7079 3.99551 69.8247 3.82804 69.8733 3.70244C69.9122 3.62917 69.9317 3.54543 69.9317 3.45123C69.9317 3.13722 69.6982 2.89648 69.416 2.89648H62.9263C62.9263 3.10582 63.0917 3.28376 63.2863 3.28376L67.9176 3.29423C67.9663 3.3047 67.9955 3.34656 67.9955 3.38843C67.9955 3.41983 67.976 3.45123 67.9566 3.47217L63.0236 7.79501C62.8874 7.93108 62.7998 8.12996 62.7998 8.34976C62.7998 8.75797 63.1014 9.09291 63.4809 9.10338H63.5295H69.6398C69.8344 9.10338 69.9998 8.92544 69.9998 8.7161L64.9987 8.70564Z" fill="#424242"/>
<path fill-rule="evenodd" clip-rule="evenodd" d="M5.76194 5.02815C5.76194 5.45657 5.4413 5.8014 5.04291 5.8014H2.15708C1.7587 5.8014 1.43806 5.45657 1.43806 5.02815V2.89648H0V5.99993V9.10338H1.43806V6.97172C1.43806 6.55375 1.74899 6.19847 2.15708 6.19847H5.04291C5.4413 6.19847 5.76194 6.55375 5.76194 6.97172V9.10338H7.2V5.99993V2.89648H5.76194V5.02815Z" fill="#424242"/>
<path fill-rule="evenodd" clip-rule="evenodd" d="M27.8775 6.21451L23.3982 4.45606C23.1844 4.36186 23.0386 4.14205 23.0386 3.89084C23.0386 3.56637 23.2621 3.3047 23.5536 3.28376H23.5633H23.6022H28.4411C28.6354 3.28376 28.8006 3.10582 28.8006 2.89648H22.9803C22.2224 2.89648 21.6006 3.56637 21.6006 4.38279C21.6006 4.97941 21.9309 5.50275 22.4071 5.73303L26.5755 7.36587C26.8281 7.46007 27.003 7.72174 27.003 8.02529C27.003 8.41256 26.7115 8.7161 26.3617 8.7161H21.6978C21.8241 8.94638 22.0573 9.10338 22.3196 9.10338H22.3099H27.4208C28.1787 9.10338 28.7909 8.44396 28.7909 7.62754C28.8103 6.96812 28.4216 6.41338 27.8775 6.21451Z" fill="#424242"/>
<path fill-rule="evenodd" clip-rule="evenodd" d="M9.29836 5.99494C8.72502 9.31193 10.7218 12 13.7566 12C16.0598 12 18.2839 10.4582 19.48 8.26713C19.48 8.26713 17.7798 8.49029 17.3053 8.84532C17.246 8.88589 17.1471 9.01776 17.1471 9.01776C16.1191 10.377 14.6462 11.2697 13.1536 11.2697C10.7218 11.2697 9.15997 8.91632 9.66411 6.00509C10.1682 3.09385 12.5407 0.740517 14.9625 0.740517C16.3959 0.740517 17.5129 1.5723 18.1159 2.84026C18.2049 3.02284 18.0566 3.07356 18.0566 3.07356L13.5193 5.71092C13.5193 5.71092 13.3216 5.81236 13.3414 5.57905C13.3414 5.57905 13.6577 3.11414 13.7566 2.2925C13.7664 2.24178 13.7467 2.22149 13.7467 2.21135C13.717 2.17078 13.6676 2.10991 13.6379 2.06934C13.6182 2.04905 13.5984 2.06934 13.5984 2.08963C13.4205 3.10399 12.9064 6.13695 12.9064 6.13695C12.9064 6.13695 12.9163 6.18767 12.9559 6.17753C13.5687 5.90365 18.877 3.54017 19.8161 3.11414C20.0237 3.02284 20.0138 2.8504 19.9842 2.7794C19.2922 1.10569 17.7798 2.86144e-05 15.8324 2.86144e-05C12.7878 -0.0101151 9.8717 2.67796 9.29836 5.99494Z" fill="#039BE5"/>
</g>
<defs>
<clipPath id="clip0_779_79143">
<rect width="70" height="12" fill="white"/>
</clipPath>
</defs>
</svg>
