<svg width="18" height="18" viewBox="0 0 18 18" fill="none" xmlns="http://www.w3.org/2000/svg">
<path d="M9.625 4.83333C9.625 4.48816 9.34518 4.20833 9 4.20833C8.65482 4.20833 8.375 4.48816 8.375 4.83333V13.1667C8.375 13.5118 8.65482 13.7917 9 13.7917C9.34518 13.7917 9.625 13.5118 9.625 13.1667V4.83333Z" fill="#4D4D4D"/>
<path d="M12.9583 8.16667C12.9583 7.82149 12.6785 7.54167 12.3333 7.54167C11.9882 7.54167 11.7083 7.82149 11.7083 8.16667V13.1667C11.7083 13.5118 11.9882 13.7917 12.3333 13.7917C12.6785 13.7917 12.9583 13.5118 12.9583 13.1667V8.16667Z" fill="#4D4D4D"/>
<path d="M6.29167 9.83333C6.29167 9.48816 6.01185 9.20833 5.66667 9.20833C5.32149 9.20833 5.04167 9.48816 5.04167 9.83333V13.1667C5.04167 13.5118 5.32149 13.7917 5.66667 13.7917C6.01185 13.7917 6.29167 13.5118 6.29167 13.1667V9.83333Z" fill="#4D4D4D"/>
<path fill-rule="evenodd" clip-rule="evenodd" d="M12.7196 0.978107C11.7678 0.874988 10.5682 0.874993 9.03771 0.875H8.96229C7.43185 0.874993 6.23218 0.874988 5.2804 0.978107C4.30912 1.08334 3.52213 1.30194 2.8502 1.79013C2.44341 2.08568 2.08568 2.44341 1.79013 2.8502C1.30194 3.52213 1.08334 4.30912 0.978107 5.2804C0.874988 6.23218 0.874993 7.43185 0.875 8.96229V9.03771C0.874993 10.5682 0.874988 11.7678 0.978107 12.7196C1.08334 13.6909 1.30194 14.4779 1.79013 15.1498C2.08567 15.5566 2.44341 15.9143 2.8502 16.2099C3.52213 16.6981 4.30912 16.9167 5.2804 17.0219C6.23216 17.125 7.4318 17.125 8.96221 17.125H9.03773C10.5681 17.125 11.7678 17.125 12.7196 17.0219C13.6909 16.9167 14.4779 16.6981 15.1498 16.2099C15.5566 15.9143 15.9143 15.5566 16.2099 15.1498C16.6981 14.4779 16.9167 13.6909 17.0219 12.7196C17.125 11.7678 17.125 10.5682 17.125 9.03779V8.96227C17.125 7.43187 17.125 6.23216 17.0219 5.2804C16.9167 4.30912 16.6981 3.52213 16.2099 2.8502C15.9143 2.44341 15.5566 2.08567 15.1498 1.79013C14.4779 1.30194 13.6909 1.08334 12.7196 0.978107ZM3.58493 2.8014C4.00826 2.49383 4.55011 2.31454 5.41504 2.22083C6.29166 2.12586 7.42369 2.125 9 2.125C10.5763 2.125 11.7083 2.12586 12.585 2.22083C13.4499 2.31454 13.9917 2.49383 14.4151 2.8014C14.7157 3.01985 14.9802 3.28426 15.1986 3.58493C15.5062 4.00826 15.6855 4.55011 15.7792 5.41504C15.8741 6.29166 15.875 7.42369 15.875 9C15.875 10.5763 15.8741 11.7083 15.7792 12.585C15.6855 13.4499 15.5062 13.9917 15.1986 14.4151C14.9802 14.7157 14.7157 14.9802 14.4151 15.1986C13.9917 15.5062 13.4499 15.6855 12.585 15.7792C11.7083 15.8741 10.5763 15.875 9 15.875C7.42369 15.875 6.29166 15.8741 5.41504 15.7792C4.55011 15.6855 4.00826 15.5062 3.58493 15.1986C3.28426 14.9802 3.01985 14.7157 2.8014 14.4151C2.49383 13.9917 2.31454 13.4499 2.22083 12.585C2.12586 11.7083 2.125 10.5763 2.125 9C2.125 7.42369 2.12586 6.29166 2.22083 5.41504C2.31454 4.55011 2.49383 4.00826 2.8014 3.58493C3.01985 3.28426 3.28426 3.01985 3.58493 2.8014Z" fill="#4D4D4D"/>
</svg>
