<svg width="20" height="20" viewBox="0 0 20 20" fill="none" xmlns="http://www.w3.org/2000/svg">
<path fill-rule="evenodd" clip-rule="evenodd" d="M6.04167 10.1666C6.04167 9.82145 6.32149 9.54163 6.66667 9.54163H12.5C12.8452 9.54163 13.125 9.82145 13.125 10.1666C13.125 10.5118 12.8452 10.7916 12.5 10.7916H6.66667C6.32149 10.7916 6.04167 10.5118 6.04167 10.1666Z" fill="#4D4D4D"/>
<path fill-rule="evenodd" clip-rule="evenodd" d="M6.04167 13.5C6.04167 13.1548 6.32149 12.875 6.66667 12.875H10.3167C10.6618 12.875 10.9417 13.1548 10.9417 13.5C10.9417 13.8452 10.6618 14.125 10.3167 14.125H6.66667C6.32149 14.125 6.04167 13.8452 6.04167 13.5Z" fill="#4D4D4D"/>
<path fill-rule="evenodd" clip-rule="evenodd" d="M8.27402 1.04151C8.29449 1.04157 8.31428 1.04162 8.33333 1.04162H11.6667C11.6857 1.04162 11.7055 1.04157 11.726 1.04151C12.0951 1.04046 12.685 1.03878 13.1592 1.35492C13.7294 1.7351 13.9583 2.41742 13.9583 3.33329C13.9583 3.35235 13.9584 3.37214 13.9584 3.39261C13.9595 3.76176 13.9612 4.3516 13.645 4.82581C13.2649 5.39607 12.5825 5.62496 11.6667 5.62496H8.33333C8.31428 5.62496 8.29449 5.62501 8.27402 5.62507C7.90487 5.62612 7.31502 5.6278 6.84081 5.31165C6.27055 4.93148 6.04167 4.24916 6.04167 3.33329C6.04167 2.41742 6.27055 1.7351 6.84081 1.35492C7.31502 1.03878 7.90487 1.04046 8.27402 1.04151ZM7.53419 2.39499C7.47944 2.43148 7.29167 2.5825 7.29167 3.33329C7.29167 4.08408 7.47944 4.2351 7.53419 4.27159C7.65868 4.35459 7.8627 4.37496 8.33333 4.37496H11.6667C12.4175 4.37496 12.5685 4.18718 12.605 4.13244C12.688 4.00794 12.7083 3.80393 12.7083 3.33329C12.7083 2.5825 12.5206 2.43148 12.4658 2.39499C12.3413 2.31199 12.1373 2.29162 11.6667 2.29162H8.33333C7.8627 2.29162 7.65868 2.31199 7.53419 2.39499Z" fill="#4D4D4D"/>
<path fill-rule="evenodd" clip-rule="evenodd" d="M7.29076 3.31626C7.30939 3.66093 7.04508 3.95545 6.7004 3.97408C5.36195 4.04643 4.52778 4.32766 4.00179 4.89702C3.46883 5.47392 3.125 6.48398 3.125 8.33332V13.3333C3.125 14.9889 3.34277 16.0259 3.90786 16.6718C4.45489 17.2969 5.47056 17.7083 7.5 17.7083H12.5C14.5294 17.7083 15.5451 17.2969 16.0921 16.6718C16.6572 16.0259 16.875 14.9889 16.875 13.3333V8.33332C16.875 6.4794 16.531 5.46982 15.9985 4.89421C15.4729 4.32602 14.6391 4.04649 13.2996 3.97408C12.9549 3.95545 12.6906 3.66093 12.7092 3.31626C12.7279 2.97158 13.0224 2.70727 13.3671 2.7259C14.8026 2.8035 16.0521 3.11147 16.9161 4.04536C17.7732 4.97183 18.125 6.37892 18.125 8.33332V13.3333C18.125 15.011 17.9261 16.474 17.0329 17.4949C16.1216 18.5364 14.6372 18.9583 12.5 18.9583H7.5C5.36278 18.9583 3.87844 18.5364 2.96714 17.4949C2.0739 16.474 1.875 15.011 1.875 13.3333V8.33332C1.875 6.38267 2.227 4.97606 3.08363 4.0488C3.94722 3.11399 5.19638 2.80355 6.63293 2.7259C6.97761 2.70727 7.27212 2.97158 7.29076 3.31626Z" fill="#4D4D4D"/>
</svg>
