<svg width="20" height="20" viewBox="0 0 20 20" fill="none" xmlns="http://www.w3.org/2000/svg">
<path fill-rule="evenodd" clip-rule="evenodd" d="M6.0415 10.1667C6.0415 9.82148 6.32133 9.54166 6.6665 9.54166H12.4998C12.845 9.54166 13.1248 9.82148 13.1248 10.1667C13.1248 10.5118 12.845 10.7917 12.4998 10.7917H6.6665C6.32133 10.7917 6.0415 10.5118 6.0415 10.1667Z" fill="#4D4D4D"/>
<path fill-rule="evenodd" clip-rule="evenodd" d="M6.0415 13.5C6.0415 13.1548 6.32133 12.875 6.6665 12.875H10.3165C10.6617 12.875 10.9415 13.1548 10.9415 13.5C10.9415 13.8452 10.6617 14.125 10.3165 14.125H6.6665C6.32133 14.125 6.0415 13.8452 6.0415 13.5Z" fill="#4D4D4D"/>
<path fill-rule="evenodd" clip-rule="evenodd" d="M8.27385 1.04154C8.29432 1.0416 8.31412 1.04165 8.33317 1.04165H11.6665C11.6856 1.04165 11.7054 1.0416 11.7258 1.04154C12.095 1.04049 12.6848 1.03881 13.159 1.35496C13.7293 1.73513 13.9582 2.41745 13.9582 3.33332C13.9582 3.35238 13.9582 3.37217 13.9583 3.39264C13.9593 3.76179 13.961 4.35163 13.6449 4.82584C13.2647 5.3961 12.5824 5.62499 11.6665 5.62499H8.33317C8.31412 5.62499 8.29432 5.62504 8.27385 5.6251C7.9047 5.62615 7.31486 5.62783 6.84065 5.31169C6.27039 4.93151 6.0415 4.24919 6.0415 3.33332C6.0415 2.41745 6.27039 1.73513 6.84065 1.35496C7.31486 1.03881 7.9047 1.04049 8.27385 1.04154ZM7.53402 2.39502C7.47928 2.43151 7.2915 2.58253 7.2915 3.33332C7.2915 4.08411 7.47928 4.23513 7.53402 4.27162C7.65852 4.35462 7.86253 4.37499 8.33317 4.37499H11.6665C12.4173 4.37499 12.5683 4.18721 12.6048 4.13247C12.6878 4.00797 12.7082 3.80396 12.7082 3.33332C12.7082 2.58253 12.5204 2.43151 12.4657 2.39502C12.3412 2.31202 12.1371 2.29165 11.6665 2.29165H8.33317C7.86253 2.29165 7.65852 2.31202 7.53402 2.39502Z" fill="#4D4D4D"/>
<path fill-rule="evenodd" clip-rule="evenodd" d="M7.29076 3.31626C7.30939 3.66093 7.04508 3.95545 6.7004 3.97408C5.36195 4.04643 4.52778 4.32766 4.00179 4.89702C3.46883 5.47392 3.125 6.48398 3.125 8.33332V13.3333C3.125 14.9889 3.34277 16.0259 3.90786 16.6718C4.45489 17.2969 5.47056 17.7083 7.5 17.7083H12.5C14.5294 17.7083 15.5451 17.2969 16.0921 16.6718C16.6572 16.0259 16.875 14.9889 16.875 13.3333V8.33332C16.875 6.4794 16.531 5.46982 15.9985 4.89421C15.4729 4.32602 14.6391 4.04649 13.2996 3.97408C12.9549 3.95545 12.6906 3.66093 12.7092 3.31626C12.7279 2.97158 13.0224 2.70727 13.3671 2.7259C14.8026 2.8035 16.0521 3.11147 16.9161 4.04536C17.7732 4.97183 18.125 6.37892 18.125 8.33332V13.3333C18.125 15.011 17.9261 16.474 17.0329 17.4949C16.1216 18.5364 14.6372 18.9583 12.5 18.9583H7.5C5.36278 18.9583 3.87844 18.5364 2.96714 17.4949C2.0739 16.474 1.875 15.011 1.875 13.3333V8.33332C1.875 6.38267 2.227 4.97606 3.08363 4.0488C3.94722 3.11399 5.19638 2.80355 6.63293 2.7259C6.97761 2.70727 7.27212 2.97158 7.29076 3.31626Z" fill="#4D4D4D"/>
</svg>
