<svg width="40" height="40" viewBox="0 0 40 40" fill="none" xmlns="http://www.w3.org/2000/svg">
<path fill-rule="evenodd" clip-rule="evenodd" d="M19.7007 7.55058C19.7006 7.55072 19.7008 7.55045 19.7007 7.55058L13.7397 13.5283C12.6088 14.6823 10.7461 14.6637 9.61628 13.5339L5.29961 9.21725C5.03121 8.94884 4.82069 8.80639 4.68154 8.73703C4.6319 8.88497 4.5835 9.13556 4.5835 9.5167V25.4834C4.5835 29.3914 7.75616 32.568 11.6692 32.5834H28.3335C30.5494 32.5834 32.2989 31.8502 33.4913 30.6578C34.6836 29.4655 35.4168 27.716 35.4168 25.5V9.5167C35.4168 9.13557 35.3684 8.88498 35.3188 8.73703C35.1796 8.80639 34.9691 8.94885 34.7007 9.21725L30.3889 13.529C29.258 14.6823 27.3958 14.6635 26.2663 13.5339L20.2715 7.5391C20.1352 7.39921 19.869 7.38273 19.7007 7.55058ZM35.461 8.68349C35.461 8.68352 35.4602 8.68368 35.4585 8.6838L35.461 8.68349ZM35.2575 8.60058C35.2564 8.59934 35.2559 8.59864 35.2559 8.59861L35.2575 8.60058ZM4.74441 8.59861C4.74443 8.59864 4.74395 8.5993 4.74295 8.60048L4.74441 8.59861ZM4.54155 8.68376C4.54008 8.68364 4.53932 8.68352 4.53931 8.68349L4.54155 8.68376ZM22.0557 5.7878C20.9248 4.63444 19.0625 4.65324 17.9329 5.78282L11.965 11.7674L11.9549 11.7777C11.8185 11.9177 11.5523 11.9344 11.384 11.7661L7.06738 7.44948C6.21998 6.60208 4.96651 5.82237 3.69155 6.35189C2.41785 6.88088 2.0835 8.31809 2.0835 9.5167V25.4834C2.0835 30.7746 6.37636 35.0642 11.6623 35.0834L11.6668 35.0834H28.3335C31.1176 35.0834 33.5347 34.1499 35.259 32.4256C36.9834 30.7013 37.9168 28.2841 37.9168 25.5V9.5167C37.9168 8.31809 37.5825 6.88088 36.3088 6.35189C35.0338 5.82237 33.7804 6.60208 32.9329 7.44948L28.6163 11.7661L28.6049 11.7777C28.4685 11.9177 28.2023 11.9344 28.034 11.7661L22.0557 5.7878Z" fill="#B1294A"/>
</svg>
