<svg width="20" height="18" viewBox="0 0 20 18" fill="none" xmlns="http://www.w3.org/2000/svg">
<path fill-rule="evenodd" clip-rule="evenodd" d="M7.4722 0.041626H12.5281C13.6712 0.0416222 14.5674 0.0416191 15.2877 0.100469C16.0212 0.160395 16.6271 0.284441 17.1755 0.563887C18.0771 1.02328 18.8102 1.75631 19.2696 2.65792C19.549 3.20636 19.6731 3.81229 19.733 4.54574C19.7918 5.26603 19.7918 6.16222 19.7918 7.30531V7.36127C19.7918 8.50437 19.7918 9.40056 19.733 10.1208C19.6731 10.8543 19.549 11.4602 19.2696 12.0087C18.8102 12.9103 18.0771 13.6433 17.1755 14.1027C16.6271 14.3821 16.0212 14.5062 15.2877 14.5661C14.5674 14.625 13.6712 14.625 12.5281 14.625H10.6252V16.1533C11.1455 16.1896 11.6634 16.2715 12.1729 16.3989L13.4851 16.727C13.82 16.8107 14.0236 17.15 13.9398 17.4849C13.8561 17.8197 13.5168 18.0233 13.1819 17.9396L11.8697 17.6116C11.256 17.4581 10.6281 17.3814 10.0002 17.3814C9.37226 17.3814 8.74436 17.4581 8.13062 17.6116L6.81841 17.9396C6.48354 18.0233 6.14421 17.8197 6.06049 17.4849C5.97677 17.15 6.18037 16.8107 6.51524 16.727L7.82745 16.3989C8.33695 16.2715 8.85486 16.1896 9.37516 16.1533V14.625H7.47218C6.32909 14.625 5.4329 14.625 4.71261 14.5661C3.97916 14.5062 3.37323 14.3821 2.82479 14.1027C1.92318 13.6433 1.19015 12.9103 0.730757 12.0087C0.451312 11.4602 0.327265 10.8543 0.267339 10.1208C0.208489 9.40055 0.208492 8.50436 0.208496 7.36126V7.30533C0.208492 6.16223 0.208489 5.26603 0.267339 4.54574C0.327265 3.81229 0.451312 3.20636 0.730757 2.65792C1.19015 1.75631 1.92318 1.02328 2.82479 0.563887C3.37323 0.284441 3.97916 0.160395 4.71261 0.100469C5.4329 0.0416191 6.3291 0.0416222 7.4722 0.041626ZM12.5002 13.375C13.6773 13.375 14.5225 13.3745 15.1859 13.3203C15.8421 13.2667 16.2652 13.1636 16.608 12.9889C17.2745 12.6494 17.8163 12.1076 18.1558 11.4412C18.3305 11.0983 18.4335 10.6752 18.4871 10.0191C18.5413 9.35561 18.5418 8.51038 18.5418 7.33329C18.5418 6.1562 18.5413 5.31098 18.4871 4.64753C18.4335 3.99138 18.3305 3.56827 18.1558 3.22541C17.8163 2.559 17.2745 2.0172 16.608 1.67764C16.2652 1.50295 15.8421 1.39993 15.1859 1.34632C14.5225 1.29211 13.6773 1.29163 12.5002 1.29163H7.50016C6.32307 1.29163 5.47784 1.29211 4.8144 1.34632C4.15825 1.39993 3.73514 1.50295 3.39228 1.67764C2.72587 2.0172 2.18407 2.559 1.84451 3.22541C1.66982 3.56827 1.5668 3.99138 1.51319 4.64753C1.45898 5.31098 1.4585 6.1562 1.4585 7.33329C1.4585 8.51038 1.45898 9.35561 1.51319 10.0191C1.5668 10.6752 1.66982 11.0983 1.84451 11.4412C2.18407 12.1076 2.72587 12.6494 3.39228 12.9889C3.73514 13.1636 4.15825 13.2667 4.8144 13.3203C5.47784 13.3745 6.32307 13.375 7.50016 13.375H12.5002Z" fill="#4D4D4D"/>
</svg>
