<svg width="70" height="28" viewBox="0 0 70 28" fill="none" xmlns="http://www.w3.org/2000/svg">
<path fill-rule="evenodd" clip-rule="evenodd" d="M32.4873 15.8539H35.3466C37.3404 15.8539 38.3798 16.5562 38.3798 18.0595C38.3798 18.7268 37.9752 19.2244 37.5605 19.484V19.5061C38.1146 19.6986 38.9665 20.2861 38.9665 21.3833C38.9665 22.8416 38.0903 23.8473 35.6919 23.8473H32.4873V15.8539ZM35.1627 19.1328C36.0158 19.1328 36.4423 18.987 36.4423 18.2736C36.4423 17.5957 35.9808 17.3245 35.0595 17.3245H34.4586V19.1328H35.1627ZM35.4487 22.3435C36.4874 22.3435 37.007 22.0734 37.007 21.4276C37.007 20.7043 36.4423 20.4441 35.3116 20.4441H34.4586V22.3435H35.4487ZM39.5846 22.0845C39.5846 20.5241 41.0386 20.2079 42.282 20.2079H43.3776V19.8229C43.3776 19.281 43.0217 19.1229 42.2369 19.1229C41.6152 19.1229 40.9437 19.2576 40.3576 19.3941L39.9761 18.0268C40.6909 17.7544 41.5209 17.5286 42.5246 17.5286C44.4739 17.5286 45.2576 18.0706 45.2576 19.4612V22.2081C45.2576 22.4135 45.4652 22.4584 45.8235 22.4677L45.7547 23.8928C45.6034 23.9056 45.4539 23.9056 45.3038 23.9056C44.5439 23.9056 43.7359 23.7802 43.5615 23.2488C43.1012 23.5988 42.4433 23.9488 41.7522 23.9488C40.3676 23.9488 39.5846 23.3159 39.5846 22.0845ZM43.3776 22.277V21.3034L42.432 21.3273C41.8667 21.3366 41.4532 21.5175 41.4532 21.9707C41.4532 22.3324 41.8104 22.4905 42.155 22.4905C42.5246 22.4905 42.9642 22.3884 43.3776 22.2758V22.277ZM46.7667 17.6756H48.6917V18.2975C49.0714 18.0146 49.9037 17.517 50.7443 17.517C52.7161 17.517 52.8561 18.5792 52.8561 19.9816V23.8473H50.94V20.1391C50.94 19.2915 50.7443 19.1445 50.0988 19.1445C49.5222 19.1445 49.0032 19.3265 48.6917 19.4735V23.8473H46.7667V17.6751V17.6756ZM54.0965 15.3242H56.0215V19.9588L57.765 17.6756H59.8276L57.5319 20.5241L60.2073 23.8473H57.8332L56.0215 21.304V23.8473H54.0959L54.0965 15.3242Z" fill="#E24353"/>
<path fill-rule="evenodd" clip-rule="evenodd" d="M19.3072 4.09131H24.3282V12.0865H16.1738V10.2828L20.6782 5.86756L20.8994 5.65173L19.3072 4.09131Z" fill="#099A71"/>
<path fill-rule="evenodd" clip-rule="evenodd" d="M14.2506 0L20.0179 5.6525L14.2506 11.3056L12.9515 10.031V3.48017H10.7002L14.2506 0Z" fill="#E24353"/>
<path fill-rule="evenodd" clip-rule="evenodd" d="M4.1748 4.09131V9.01464L5.54514 7.67181L5.7676 7.45598L10.489 12.0871H12.3298V4.09131H4.1748Z" fill="#099A71"/>
<path fill-rule="evenodd" clip-rule="evenodd" d="M0 13.9724L5.76729 8.31934L11.5316 13.9724L10.2313 15.2482H3.55042V17.4543L0 13.9724Z" fill="#E24353"/>
<path fill-rule="evenodd" clip-rule="evenodd" d="M4.1748 23.8541V15.8584H12.3298V17.6621L7.82548 22.0773L7.60421 22.2931L7.82548 22.509L9.19641 23.8541H4.1748Z" fill="#099A71"/>
<path fill-rule="evenodd" clip-rule="evenodd" d="M14.2526 27.9458L8.48535 22.2933L14.2526 16.6396L15.55 17.9131V24.4651H17.8031L14.2526 27.9458Z" fill="#E24353"/>
<path fill-rule="evenodd" clip-rule="evenodd" d="M24.3284 23.8541H16.1729V15.8584H18.0136L22.5162 20.2754L22.7374 20.4895L22.9569 20.2736L24.3284 18.9302V23.8541Z" fill="#099A71"/>
<path fill-rule="evenodd" clip-rule="evenodd" d="M22.7385 19.6267L16.9736 13.9724L18.2728 12.6979H24.9536V10.4917L28.5041 13.9724L22.7385 19.6267Z" fill="#E24353"/>
<path fill-rule="evenodd" clip-rule="evenodd" d="M32.4873 4.10038H35.6504C37.4793 4.10038 38.7897 5.15038 38.7897 6.93129C38.7897 8.49871 37.4787 9.81821 35.0518 9.81821H34.4526V12.0728H32.4873V4.10038ZM35.12 8.34063C36.3403 8.34063 36.7757 7.72054 36.7757 6.97738C36.7757 6.17529 36.4435 5.60071 35.3965 5.60071H34.4532V8.34063H35.12ZM47.0681 11.633L47.6215 10.2575C48.3465 10.5065 48.8732 10.6191 49.7708 10.6191C50.7502 10.6191 51.1975 10.3257 51.1975 9.84096C51.1975 8.54421 47.3332 8.89363 47.3332 6.18754C47.3332 4.65338 48.8169 3.98779 50.2554 3.98779C51.5427 3.98779 52.1644 4.25904 52.7962 4.53029L52.2326 5.85913C51.6347 5.69171 51.1393 5.53246 50.3124 5.53246C49.4967 5.53246 49.2422 5.83696 49.2422 6.17529C49.2422 7.23579 53.1765 7.23579 53.1765 9.77271C53.1765 11.5204 51.4739 12.197 49.7951 12.197C48.4615 12.197 47.6779 11.9596 47.0681 11.633ZM54.2087 4.10038H56.1645V7.33613H59.3637V4.10096H61.3178V12.0734H59.3637V8.79096H56.1645V12.0728H54.2093L54.2087 4.10038ZM67.4493 4.10038H64.7816L62.0427 12.0728H64.0686L64.8386 9.73946H67.3912L68.163 12.0728H70.1859L67.4493 4.10038ZM65.2989 8.35229L66.1158 5.28396L66.9326 8.35229H65.2989ZM43.9276 4.10038H41.2581L38.5192 12.0728H40.5462L41.315 9.73946H43.8706L44.6394 12.0728H46.6647L43.9282 4.10038H43.9276ZM41.7765 8.35229L42.5922 5.28396L43.4091 8.35229H41.7765Z" fill="#099A71"/>
</svg>
