<svg width="20" height="20" viewBox="0 0 20 20" fill="none" xmlns="http://www.w3.org/2000/svg">
<g clip-path="url(#clip0_4821_27839)">
<path d="M0 1.46401C0 0.685883 0.664062 0.0400391 1.48438 0.0400391H18.5156C19.3359 0.0400391 20 0.678101 20 1.46401V18.5361C20 19.3142 19.3359 19.96 18.5156 19.96H1.48438C0.664062 19.96 0 19.322 0 18.5361V1.46401Z" fill="white"/>
<path d="M6.07813 16.7074V7.74337H3.08594V16.7074H6.07813ZM4.58594 6.51393C5.625 6.51393 6.27344 5.82918 6.27344 4.96546C6.25781 4.08618 5.625 3.41699 4.60938 3.41699C3.58594 3.41699 2.91406 4.08618 2.91406 4.97324C2.91406 5.82918 3.5625 6.52171 4.57031 6.52171H4.58594V6.51393ZM7.73438 16.7074H10.7266V11.7118C10.7266 11.4395 10.75 11.1671 10.8281 10.9804C11.0391 10.4512 11.5312 9.89099 12.3594 9.89099C13.4453 9.89099 13.875 10.7158 13.875 11.9141V16.7151H16.875V11.5795C16.875 8.82496 15.3984 7.53327 13.4375 7.53327C12.888 7.51214 12.3432 7.64265 11.8635 7.91041C11.3837 8.17817 10.9876 8.57276 10.7188 9.05062H10.7344V7.74337H7.73438C7.77344 8.58374 7.73438 16.7074 7.73438 16.7074Z" fill="#4D4D4D"/>
</g>
<defs>
<clipPath id="clip0_4821_27839">
<rect width="20" height="20" fill="white"/>
</clipPath>
</defs>
</svg>
