<svg width="70" height="24" viewBox="0 0 70 24" fill="none" xmlns="http://www.w3.org/2000/svg">
<path fill-rule="evenodd" clip-rule="evenodd" d="M32.2949 0.368369C32.2986 0.0509074 32.5818 -0.105864 32.906 0.0861809L34.4896 1.00329C34.7281 1.1483 34.8734 1.42265 34.8734 1.71268C34.8734 5.91023 34.8734 10.1078 34.8734 14.3053C34.8734 15.0578 34.2958 15.6692 33.5804 15.6692C32.865 15.6692 32.2837 15.0578 32.2837 14.3053C32.2837 9.66097 32.2949 5.01663 32.2949 0.368369Z" fill="#D1010F"/>
<path fill-rule="evenodd" clip-rule="evenodd" d="M29.6646 0.368369C29.6646 0.0509074 29.3814 -0.105864 29.0535 0.0861809L27.4736 1.00329C27.2352 1.1483 27.0898 1.42265 27.0898 1.71268C27.0898 5.91023 27.0898 10.1078 27.0898 14.3053C27.0898 15.0578 27.6674 15.6692 28.3828 15.6692C29.0983 15.6692 29.6795 15.0578 29.6795 14.3053C29.6795 9.66097 29.6646 5.01663 29.6646 0.368369Z" fill="#D1010F"/>
<path fill-rule="evenodd" clip-rule="evenodd" d="M55.6395 4.70753L55.7512 4.90741C56.3586 6.01657 56.6642 7.21195 56.6642 8.49747C56.6642 9.79475 56.3549 11.0019 55.7475 12.1306C55.1327 13.2594 54.3018 14.1373 53.2472 14.7722C52.1927 15.4032 51.0302 15.7246 49.7558 15.7246C47.8853 15.7246 46.2905 15.0231 44.9714 13.6239C43.6486 12.2247 42.9854 10.5237 42.9854 8.5249C42.9854 7.10221 43.317 5.8402 43.9914 4.70361C44.297 4.24897 44.7739 3.9707 45.3105 3.9707C46.1899 3.9707 46.9053 4.71928 46.9053 5.64423C46.9053 5.93426 46.8345 6.20469 46.7078 6.44769C46.3985 7.04734 46.2458 7.73321 46.2458 8.51315C46.2458 9.70852 46.5774 10.6727 47.2481 11.4134C47.9151 12.1502 48.7572 12.5226 49.7819 12.5226C50.8029 12.5226 51.6562 12.1463 52.3343 11.3977C53.0125 10.6492 53.3516 9.68893 53.3516 8.51315C53.3516 7.70969 53.1988 7.01206 52.8933 6.40457C52.7889 6.17334 52.7293 5.91858 52.7293 5.65207C52.7293 4.72712 53.4447 3.97854 54.3241 3.97854C54.8681 3.97854 55.3525 4.26857 55.6395 4.70753Z" fill="#D1010F"/>
<path fill-rule="evenodd" clip-rule="evenodd" d="M69.9993 13.8704C69.9993 11.7265 69.9993 9.58662 69.9993 6.60405C69.9993 5.02066 69.6043 3.8292 68.8032 3.02575C67.8568 2.07337 66.7054 1.59521 65.3453 1.59521C64.6858 1.59521 64.0374 1.72455 63.4077 1.98322C62.7743 2.23798 62.07 2.69261 61.2875 3.37065C61.2838 2.39867 60.5199 1.59521 59.5772 1.59521C58.6345 1.59521 57.8706 2.39867 57.8706 3.39416C57.8706 7.1018 57.8706 10.9192 57.8706 13.8704C57.8706 14.862 58.6345 15.6693 59.5772 15.6693C60.5236 15.6693 61.2875 14.862 61.2875 13.8704C61.2875 12.7181 61.2875 11.6364 61.2875 10.1588C61.2875 8.73222 61.3397 7.80335 61.4366 7.37223C61.6303 6.54918 61.9806 5.9025 62.4762 5.44002C62.9755 4.96971 63.5717 4.73847 64.2685 4.73847C64.805 4.73847 65.2522 4.87957 65.6173 5.16176C65.9825 5.44394 66.2396 5.85155 66.3849 6.39241C66.5302 6.92935 66.6048 8.01891 66.6048 9.65717C66.6048 11.7932 66.6048 12.3967 66.6048 13.8704C66.6048 14.862 67.3649 15.6693 68.3002 15.6693C69.2392 15.6693 69.9956 14.862 69.9993 13.8704Z" fill="#D1010F"/>
<path fill-rule="evenodd" clip-rule="evenodd" d="M51.8459 0.944824C52.2706 0.944824 52.6358 1.1016 52.9414 1.4269C53.2432 1.74044 53.3922 2.12845 53.3922 2.57916C53.3922 3.02204 53.2432 3.39829 52.9414 3.71575C52.6358 4.03713 52.2706 4.19782 51.8459 4.19782C51.4248 4.19782 51.0634 4.03713 50.7578 3.71575C50.456 3.40221 50.3032 3.02204 50.3032 2.57916C50.3032 2.12845 50.456 1.74044 50.7578 1.4269C51.0634 1.1016 51.4248 0.944824 51.8459 0.944824Z" fill="#D1010F"/>
<path fill-rule="evenodd" clip-rule="evenodd" d="M47.7956 0.944824C48.2204 0.944824 48.5855 1.1016 48.8911 1.4269C49.1929 1.74044 49.3419 2.12845 49.3419 2.57916C49.3419 3.02204 49.1929 3.39829 48.8911 3.71575C48.5855 4.03713 48.2204 4.19782 47.7956 4.19782C47.3745 4.19782 47.0131 4.03713 46.7075 3.71575C46.4057 3.40221 46.2529 3.02204 46.2529 2.57916C46.2529 2.12845 46.4057 1.74044 46.7075 1.4269C47.0131 1.1016 47.3745 0.944824 47.7956 0.944824Z" fill="#D1010F"/>
<path fill-rule="evenodd" clip-rule="evenodd" d="M23.1807 0.0351562C22.7001 0.0351562 22.2939 0.207604 21.9511 0.568178C21.6083 0.928751 21.4443 1.35595 21.4443 1.86154C21.4443 2.39064 21.612 2.83744 21.9623 3.21369C22.3051 3.5821 22.715 3.76631 23.2068 3.76631C23.6875 3.76631 24.0825 3.5821 24.4216 3.22153C24.7681 2.85704 24.9283 2.42592 24.9283 1.91249C24.9283 1.39123 24.7644 0.952267 24.4178 0.579936C24.075 0.219362 23.6689 0.0351562 23.1807 0.0351562Z" fill="#D1010F"/>
<path fill-rule="evenodd" clip-rule="evenodd" d="M24.4735 14.3055C24.4735 11.8834 24.4735 9.46522 24.4735 7.04311C24.4735 6.29061 23.8959 5.6792 23.1805 5.6792C22.4651 5.6792 21.8838 6.29061 21.8838 7.04311C21.8838 9.46522 21.8838 11.8834 21.8838 14.3055C21.8838 15.058 22.4651 15.6694 23.1805 15.6694C23.8959 15.6694 24.4735 15.058 24.4735 14.3055Z" fill="#D1010F"/>
<path fill-rule="evenodd" clip-rule="evenodd" d="M2.58969 3.69203C2.58969 2.93953 2.00841 2.32812 1.29298 2.32812C0.577558 2.32812 0 2.93953 0 3.69203C0 7.22722 0 10.7663 0 14.3054C0 15.0579 0.577558 15.6693 1.29298 15.6693C2.00841 15.6693 2.58969 15.0579 2.58969 14.3054C2.58969 12.8475 2.58969 11.3895 2.58969 9.93152C2.58969 8.98698 2.62696 7.7916 2.94368 6.90192C3.17098 6.267 3.53242 5.71046 4.05781 5.30678C4.55712 4.92269 5.1235 4.72672 5.74204 4.72672C6.27116 4.72672 6.76674 4.86782 7.19525 5.20095C7.64239 5.54977 7.92186 6.05928 8.08953 6.60798C8.34664 7.43102 8.36527 8.5245 8.36527 9.39066C8.36527 11.025 8.36527 12.6633 8.36527 14.3015C8.36527 15.0579 8.94656 15.6693 9.66571 15.6693C10.3849 15.6693 10.9661 15.0579 10.9661 14.3015C10.9661 12.8161 10.9661 11.3307 10.9661 9.8453C10.9661 8.92427 10.9997 7.72105 11.3127 6.85881C11.5437 6.22781 11.9051 5.69086 12.4268 5.29894C12.9336 4.91485 13.5111 4.72672 14.1334 4.72672C14.9233 4.72672 15.609 5.01675 16.071 5.70654C16.6262 6.53743 16.6858 8.08162 16.6858 9.07712C16.6858 10.8212 16.6858 12.5614 16.6858 14.3054C16.6858 15.0579 17.2671 15.6693 17.9825 15.6693C18.698 15.6693 19.2755 15.0579 19.2755 14.3054C19.2755 12.2008 19.2867 10.0961 19.2867 7.99148C19.2867 6.98031 19.2457 5.49882 18.8545 4.57387C18.5601 3.88016 18.0869 3.35498 17.4758 2.95913C16.7827 2.51233 16.0151 2.32812 15.2103 2.32812C14.3942 2.32812 13.6192 2.51625 12.9 2.91994C12.166 3.32754 11.5772 3.91935 11.1115 4.6405L10.7873 5.15L10.5153 4.60522C10.1725 3.91151 9.69924 3.3197 9.05834 2.90818C8.4398 2.50841 7.76163 2.32812 7.03503 2.32812C6.31215 2.32812 5.6079 2.46922 4.94464 2.77884C4.2702 3.09238 3.68892 3.56662 3.19334 4.13883L2.58969 4.8443V3.69203Z" fill="#D1010F"/>
<path fill-rule="evenodd" clip-rule="evenodd" d="M40.0643 14.3055C40.0643 11.8834 40.0643 9.46522 40.0643 7.04311C40.0643 6.29061 39.4867 5.6792 38.7713 5.6792C38.0559 5.6792 37.4746 6.29061 37.4746 7.04311C37.4746 9.46522 37.4746 11.8834 37.4746 14.3055C37.4746 15.058 38.0559 15.6694 38.7713 15.6694C39.4867 15.6694 40.0643 15.058 40.0643 14.3055Z" fill="#D1010F"/>
<path fill-rule="evenodd" clip-rule="evenodd" d="M38.7711 0.0351562C38.2904 0.0351562 37.8842 0.207604 37.5414 0.568178C37.1986 0.928751 37.0347 1.35595 37.0347 1.86154C37.0347 2.39064 37.2023 2.83744 37.5526 3.21369C37.8954 3.5821 38.3053 3.76631 38.7972 3.76631C39.2778 3.76631 39.6728 3.5821 40.0119 3.22153C40.3584 2.85704 40.5186 2.42592 40.5186 1.91249C40.5186 1.39123 40.3547 0.952267 40.0082 0.579936C39.6654 0.219362 39.2592 0.0351562 38.7711 0.0351562Z" fill="#D1010F"/>
<path fill-rule="evenodd" clip-rule="evenodd" d="M48.5083 19.8623C48.6871 19.8623 48.8286 20.0199 48.8286 20.2139C48.8286 20.4038 48.6871 20.5614 48.5083 20.5614C48.3294 20.5614 48.1841 20.4038 48.1841 20.2139C48.1841 20.0199 48.3294 19.8623 48.5083 19.8623ZM49.5327 19.8623C49.7115 19.8623 49.8568 20.0199 49.8568 20.2139C49.8568 20.4038 49.7115 20.5614 49.5327 20.5614C49.3539 20.5614 49.2086 20.4038 49.2086 20.2139C49.2086 20.0199 49.3539 19.8623 49.5327 19.8623ZM19.8228 19.8623C20.0016 19.8623 20.1469 20.0199 20.1469 20.2139C20.1469 20.4038 20.0016 20.5614 19.8228 20.5614C19.644 20.5614 19.4987 20.4038 19.4987 20.2139C19.4987 20.0199 19.644 19.8623 19.8228 19.8623ZM20.8473 19.8623C21.0261 19.8623 21.1714 20.0199 21.1714 20.2139C21.1714 20.4038 21.0261 20.5614 20.8473 20.5614C20.6684 20.5614 20.5269 20.4038 20.5269 20.2139C20.5269 20.0199 20.6684 19.8623 20.8473 19.8623ZM69.9814 23.5759C69.9814 23.6002 69.9776 23.6244 69.9739 23.6527C69.9665 23.6891 69.9516 23.7255 69.9367 23.7578C69.9106 23.7982 69.8771 23.8346 69.8361 23.8588C69.7877 23.8911 69.7318 23.8992 69.6759 23.8992C69.6014 23.8992 69.5269 23.875 69.4673 23.8184C69.4002 23.7578 69.3741 23.6689 69.3741 23.5759V21.0301C69.3741 21.0019 69.3779 20.9776 69.3816 20.9493C69.389 20.9089 69.4039 20.8725 69.4263 20.8362C69.4486 20.7958 69.4822 20.7634 69.5231 20.7432C69.5679 20.7149 69.6237 20.7028 69.6759 20.7028C69.7318 20.7028 69.7877 20.7149 69.8361 20.7432C69.8771 20.7715 69.9106 20.8038 69.9367 20.8483C69.9516 20.8806 69.9665 20.913 69.9739 20.9534C69.9776 20.9776 69.9814 21.0019 69.9814 21.0301V23.5759ZM66.5503 21.9596C66.6322 21.9838 66.7142 22.0121 66.7924 22.0444C66.8893 22.0848 66.9824 22.1374 67.0644 22.2101C67.1538 22.2869 67.2283 22.3839 67.2805 22.493C67.3475 22.6263 67.3699 22.7799 67.3699 22.9334C67.3699 23.0991 67.3401 23.2607 67.2618 23.4062C67.1948 23.5315 67.1016 23.6325 66.9899 23.7133C66.8781 23.7861 66.7589 23.8386 66.6322 23.8709C66.513 23.8992 66.3901 23.9154 66.2672 23.9154C66.1256 23.9154 65.9878 23.8952 65.8499 23.8548C65.7121 23.8184 65.5817 23.7537 65.4699 23.6568C65.4029 23.6042 65.3433 23.5355 65.2948 23.4628C65.2576 23.4022 65.2203 23.3335 65.1905 23.2648C65.1682 23.2082 65.1495 23.1516 65.1384 23.087C65.1272 23.0466 65.1197 23.0062 65.1197 22.9658C65.1197 22.9011 65.1346 22.8364 65.1682 22.7839C65.1943 22.7475 65.2278 22.7112 65.2688 22.6869C65.3023 22.6667 65.3395 22.6546 65.3768 22.6465C65.4066 22.6384 65.4327 22.6344 65.4625 22.6344C65.5407 22.6344 65.6264 22.6546 65.6748 22.7233C65.7046 22.7637 65.7233 22.8082 65.7344 22.8526C65.7531 22.9213 65.7754 22.986 65.7978 23.0506C65.8164 23.1112 65.8685 23.1597 65.9133 23.192C65.9691 23.2405 66.0362 23.2729 66.107 23.2809C66.1703 23.2931 66.2374 23.3012 66.3007 23.3012C66.3268 23.3012 66.3566 23.3012 66.3827 23.3012C66.4125 23.2971 66.4423 23.2931 66.4721 23.289C66.5056 23.2809 66.5391 23.2688 66.5726 23.2567C66.5987 23.2486 66.6248 23.2325 66.6472 23.2123C66.6807 23.184 66.7105 23.1476 66.7291 23.1072C66.7477 23.0627 66.7589 23.0183 66.7589 22.9698C66.7589 22.9253 66.7515 22.8809 66.7328 22.8445C66.7142 22.8162 66.6919 22.7799 66.6658 22.7556C66.6173 22.7152 66.5615 22.6829 66.5056 22.6627C66.4199 22.6263 66.3305 22.598 66.2411 22.5697L65.9617 22.4849C65.9058 22.4687 65.8536 22.4485 65.7978 22.4283C65.7456 22.4121 65.6972 22.3879 65.645 22.3637C65.6115 22.3475 65.5742 22.3273 65.5444 22.3071C65.4886 22.2707 65.4439 22.2222 65.4029 22.1737C65.3544 22.1091 65.3172 22.0323 65.2874 21.9555C65.2501 21.8545 65.2352 21.7454 65.2352 21.6363C65.2352 21.507 65.2576 21.3777 65.2986 21.2605C65.3433 21.1392 65.4103 21.0342 65.4997 20.9493C65.5966 20.8564 65.7084 20.7958 65.8276 20.7513C65.9654 20.7028 66.1181 20.6826 66.2634 20.6826C66.3156 20.6826 66.3677 20.6867 66.4199 20.6907C66.4832 20.6947 66.5503 20.7069 66.6136 20.723C66.6844 20.7392 66.7552 20.7634 66.8222 20.7958C66.893 20.8321 66.9638 20.8806 67.0234 20.9372C67.0681 20.9776 67.1091 21.0221 67.1464 21.0746C67.1799 21.1231 67.2134 21.1716 67.2395 21.2241C67.2618 21.2726 67.2842 21.3251 67.2991 21.3777C67.314 21.4221 67.3252 21.4706 67.3252 21.5231C67.3252 21.6201 67.2916 21.709 67.2171 21.7737C67.1575 21.8222 67.0867 21.8464 67.0085 21.8464C66.975 21.8464 66.9377 21.8383 66.9042 21.8262C66.8558 21.806 66.8148 21.7656 66.785 21.7171C66.7701 21.6929 66.7589 21.6646 66.744 21.6363C66.7328 21.612 66.7217 21.5878 66.7105 21.5635C66.6993 21.5312 66.6807 21.5029 66.6658 21.4746C66.6472 21.4423 66.6211 21.4181 66.595 21.3938C66.5577 21.3615 66.5093 21.3372 66.4646 21.317C66.3976 21.2928 66.3193 21.2847 66.2485 21.2847C66.1927 21.2847 66.133 21.2928 66.0809 21.3049C66.0362 21.317 65.9989 21.3332 65.9654 21.3615C65.9319 21.3857 65.9095 21.4181 65.8872 21.4544C65.8648 21.4948 65.8611 21.5433 65.8611 21.5918C65.8611 21.612 65.8611 21.6605 65.8723 21.6767C65.8834 21.6929 65.8946 21.709 65.9058 21.7211C65.9356 21.7494 65.984 21.7696 66.025 21.7818C66.0846 21.806 66.1479 21.8262 66.2113 21.8464L66.5503 21.9596ZM57.5647 21.3494H57.0282C57.0059 21.3494 56.9872 21.3494 56.9649 21.3453C56.9313 21.3413 56.8978 21.3251 56.8643 21.3009C56.827 21.2766 56.801 21.2403 56.7786 21.1999C56.7563 21.1473 56.7488 21.0948 56.7488 21.0382C56.7488 20.9816 56.7563 20.9251 56.7823 20.8766C56.8047 20.8362 56.8308 20.8038 56.8643 20.7796C56.8941 20.7554 56.9313 20.7392 56.9686 20.7351C56.9872 20.7311 57.0096 20.7271 57.0282 20.7271H58.7046C58.7493 20.7271 58.7978 20.7351 58.8387 20.7594C58.876 20.7836 58.9058 20.816 58.9319 20.8523C58.9729 20.9049 58.984 20.9736 58.984 21.0423C58.984 21.0988 58.9766 21.1554 58.9505 21.2039C58.9282 21.2403 58.9021 21.2766 58.8685 21.3009C58.835 21.3251 58.8015 21.3413 58.7642 21.3453C58.7419 21.3494 58.7233 21.3494 58.7046 21.3494H58.1756V23.5759C58.1756 23.6002 58.1719 23.6285 58.1682 23.6527C58.1607 23.6931 58.1458 23.7335 58.1235 23.7659C58.0974 23.8063 58.0639 23.8386 58.0229 23.8628C57.9745 23.8911 57.9223 23.8992 57.8664 23.8992C57.8143 23.8992 57.7621 23.8911 57.7137 23.8628C57.669 23.8386 57.6354 23.8063 57.6094 23.7618C57.5907 23.7295 57.5796 23.6891 57.5721 23.6527C57.5684 23.6244 57.5647 23.6002 57.5647 23.5759V21.3494ZM54.3757 23.7133C54.3236 23.7537 54.264 23.782 54.2044 23.8063C54.1299 23.8386 54.0516 23.8628 53.9697 23.883C53.8691 23.9073 53.761 23.9154 53.6567 23.9154C53.463 23.9154 53.273 23.883 53.0942 23.8022C52.9266 23.7255 52.7775 23.6163 52.6546 23.4749C52.5279 23.3254 52.4385 23.1516 52.3752 22.9617C52.3081 22.7516 52.2821 22.5293 52.2821 22.3071C52.2821 22.1697 52.2932 22.0323 52.3156 21.8949C52.3379 21.7535 52.3827 21.6161 52.4423 21.4827C52.4907 21.3777 52.5503 21.2807 52.6211 21.1877C52.6956 21.0908 52.785 21.0059 52.8819 20.9332C52.9899 20.8523 53.1054 20.7917 53.2283 20.7513C53.3661 20.7028 53.5114 20.6826 53.6567 20.6826C53.8467 20.6826 54.0367 20.7149 54.2155 20.7958C54.3832 20.8685 54.5322 20.9776 54.6551 21.1231C54.7855 21.2686 54.8749 21.4464 54.9383 21.6363C55.009 21.8505 55.0351 22.0808 55.0351 22.3071C55.0351 22.3839 55.0314 22.4606 55.0277 22.5374C55.0202 22.6182 55.0053 22.7031 54.9867 22.7839C54.9569 22.9173 54.9122 23.0547 54.8489 23.1759C54.8302 23.2042 54.8116 23.2365 54.7967 23.2648L54.9718 23.4587C54.9979 23.487 55.0128 23.5153 55.0314 23.5476C55.05 23.5881 55.0575 23.6325 55.0575 23.677C55.0575 23.7618 55.0239 23.8386 54.9681 23.9033C54.9085 23.9639 54.8377 24.0002 54.7594 24.0002C54.711 24.0002 54.6663 23.9881 54.6291 23.9598C54.603 23.9437 54.5806 23.9315 54.5583 23.9073L54.3757 23.7133ZM49.0224 20.6826C49.1267 20.6826 49.231 20.6988 49.3353 20.7149C49.4806 20.7432 49.6184 20.7998 49.7451 20.8806C49.8866 20.9695 50.0133 21.0867 50.1102 21.2281C50.1921 21.3494 50.2629 21.4827 50.3076 21.6282C50.3449 21.7494 50.3747 21.8747 50.3858 22.004C50.3933 22.0969 50.4007 22.1899 50.4007 22.2828C50.4007 22.4283 50.3896 22.5738 50.3598 22.7152C50.33 22.8809 50.2741 23.0385 50.1996 23.188C50.1251 23.3294 50.0319 23.4587 49.9164 23.5679C49.7972 23.681 49.6631 23.7659 49.5178 23.8224C49.3614 23.8871 49.1974 23.9154 49.0298 23.9154C48.8435 23.9154 48.661 23.883 48.4896 23.8144C48.3183 23.7457 48.1692 23.6406 48.0426 23.4992C47.9085 23.3577 47.8116 23.1799 47.7445 22.99C47.6663 22.7718 47.6402 22.5374 47.6402 22.303C47.6402 22.0687 47.67 21.8343 47.7483 21.6201C47.8153 21.4302 47.9122 21.2564 48.0463 21.1069C48.173 20.9695 48.322 20.8645 48.4896 20.7917C48.661 20.719 48.8398 20.6826 49.0224 20.6826ZM43.9372 21.9515L43.9446 23.58C43.9446 23.6083 43.9409 23.6325 43.9372 23.6608C43.9297 23.6972 43.9148 23.7335 43.8962 23.7659C43.8739 23.8063 43.8403 23.8386 43.8031 23.8628C43.7547 23.8911 43.6988 23.8992 43.6466 23.8992C43.5907 23.8992 43.5349 23.8911 43.4864 23.8628C43.4492 23.8426 43.4119 23.8103 43.3896 23.7739C43.3672 23.7416 43.3523 23.7052 43.3449 23.6648C43.3411 23.6365 43.3374 23.6083 43.3374 23.584V21.0342C43.3374 21.0059 43.3374 20.9776 43.3411 20.9534C43.3486 20.9049 43.3672 20.8604 43.397 20.8241C43.4417 20.7634 43.5051 20.723 43.5796 20.7109C43.6168 20.7069 43.6503 20.6988 43.6876 20.6988C43.7509 20.6988 43.818 20.7109 43.8701 20.7513C43.9074 20.7796 43.9409 20.8119 43.9633 20.8523L45.0734 22.6384C45.0697 22.598 45.0697 22.5536 45.0697 22.5132L45.0623 21.018C45.0623 20.9897 45.066 20.9614 45.0697 20.9372C45.0772 20.8968 45.0921 20.8645 45.1107 20.8321C45.1368 20.7877 45.174 20.7594 45.215 20.7351C45.2634 20.7109 45.3156 20.7028 45.364 20.7028C45.4199 20.7028 45.4721 20.7149 45.5168 20.7432C45.554 20.7634 45.5875 20.7917 45.6099 20.8321C45.6323 20.8645 45.6472 20.9008 45.6546 20.9412C45.6583 20.9655 45.6621 20.9897 45.6621 21.018V23.58C45.6621 23.6042 45.6583 23.6325 45.6546 23.6568C45.6472 23.6972 45.6285 23.7335 45.6062 23.7699C45.5801 23.8103 45.5466 23.8386 45.5056 23.8628C45.4534 23.8911 45.3938 23.8992 45.3342 23.8992C45.2709 23.8992 45.2001 23.8911 45.1442 23.8507C45.1107 23.8265 45.0772 23.7941 45.0548 23.7537L43.9968 22.0444C43.9782 22.0161 43.9596 21.9838 43.9372 21.9515ZM34.9367 22.2707L34.4077 23.7174C34.3928 23.7618 34.3704 23.7982 34.3406 23.8305C34.2847 23.8911 34.199 23.8992 34.1245 23.8992C34.0538 23.8992 33.9755 23.8871 33.9196 23.8305C33.8898 23.7982 33.8638 23.7618 33.8489 23.7174L33.3161 22.2545L33.3348 23.58C33.3348 23.6083 33.331 23.6325 33.3273 23.6608C33.3199 23.6972 33.3049 23.7335 33.2863 23.7659C33.264 23.8063 33.2304 23.8386 33.1895 23.8628C33.1448 23.8911 33.0926 23.8992 33.0367 23.8992C32.9883 23.8992 32.9361 23.8911 32.8877 23.8669C32.8467 23.8467 32.8095 23.8144 32.7834 23.7699C32.7648 23.7376 32.7499 23.7012 32.7424 23.6648C32.7387 23.6365 32.735 23.6123 32.735 23.5881V21.0342C32.735 21.0019 32.7387 20.9655 32.7461 20.9332C32.7573 20.8847 32.7834 20.8402 32.8169 20.7998C32.8728 20.7392 32.8393 20.7756 32.8989 20.7432C32.9585 20.7069 33.0404 20.6988 33.1112 20.6988C33.1932 20.6988 33.2975 20.7069 33.3608 20.7675C33.4055 20.8079 33.4391 20.8564 33.4614 20.913L34.1394 22.8001L34.8063 20.913C34.8286 20.8604 34.8622 20.8119 34.9031 20.7715C34.9702 20.7109 35.0745 20.6988 35.1602 20.6988C35.2161 20.6988 35.2757 20.7069 35.3316 20.7271C35.38 20.7432 35.4247 20.7715 35.4582 20.8079C35.488 20.8443 35.5104 20.8887 35.5178 20.9332C35.5253 20.9655 35.529 21.0019 35.529 21.0342V23.584C35.529 23.6083 35.529 23.6325 35.5216 23.6608C35.5141 23.6972 35.5029 23.7335 35.4806 23.7659C35.4582 23.8063 35.4247 23.8386 35.3874 23.8628C35.339 23.8911 35.2831 23.8992 35.231 23.8992C35.1565 23.8992 35.082 23.879 35.0224 23.8265C34.9516 23.7659 34.9255 23.677 34.9255 23.58L34.9367 22.2707ZM23.9989 23.875C23.9766 23.875 23.9542 23.875 23.9319 23.8709C23.8946 23.8669 23.8574 23.8507 23.8238 23.8305C23.7866 23.8022 23.7531 23.7659 23.7307 23.7214C23.7046 23.6689 23.6935 23.6083 23.6935 23.5476V21.0544C23.6935 20.9695 23.7121 20.8847 23.7642 20.82C23.8238 20.7473 23.9095 20.723 23.9989 20.723H24.677C24.7664 20.723 24.8558 20.7271 24.9452 20.7311C25.0383 20.7392 25.1352 20.7554 25.2283 20.7796C25.3252 20.8038 25.4146 20.8443 25.504 20.8968C25.6009 20.9493 25.6865 21.0261 25.761 21.115C25.8356 21.1958 25.8989 21.2928 25.9473 21.3979C25.992 21.4948 26.0255 21.5959 26.0516 21.6969C26.0777 21.7939 26.0963 21.8949 26.1038 21.9959C26.115 22.0889 26.1187 22.1778 26.1187 22.2707C26.1187 22.5091 26.0926 22.7556 26.0181 22.9819C25.9585 23.1678 25.8691 23.3496 25.7387 23.487C25.6567 23.58 25.5636 23.6568 25.4556 23.7093C25.3587 23.7618 25.2581 23.7982 25.1538 23.8265C25.0569 23.8507 24.9564 23.8628 24.8558 23.8709C24.7664 23.875 24.6807 23.875 24.595 23.875H23.9989ZM20.3369 20.6826C20.4412 20.6826 20.5492 20.6988 20.6498 20.7149C20.7951 20.7432 20.9329 20.7998 21.0596 20.8806C21.2012 20.9695 21.3278 21.0867 21.4247 21.2281C21.5067 21.3494 21.5774 21.4827 21.6221 21.6282C21.6594 21.7494 21.6892 21.8747 21.7004 22.004C21.7078 22.0969 21.7153 22.1899 21.7153 22.2828C21.7153 22.4283 21.7041 22.5738 21.678 22.7152C21.6445 22.8809 21.5923 23.0385 21.5141 23.188C21.4396 23.3294 21.3465 23.4587 21.231 23.5679C21.1155 23.681 20.9776 23.7659 20.8324 23.8224C20.6759 23.8871 20.512 23.9154 20.3443 23.9154C20.1581 23.9154 19.9755 23.883 19.8042 23.8144C19.6328 23.7457 19.4838 23.6406 19.3571 23.4992C19.223 23.3577 19.1261 23.1799 19.0591 22.99C18.9808 22.7718 18.9548 22.5374 18.9548 22.303C18.9548 22.0687 18.9846 21.8343 19.0628 21.6201C19.1299 21.4302 19.2304 21.2564 19.3608 21.1069C19.4875 20.9695 19.6365 20.8645 19.8042 20.7917C19.9755 20.719 20.1543 20.6826 20.3369 20.6826ZM15.8813 23.5759C15.8813 23.6002 15.8776 23.6244 15.8739 23.6527C15.8664 23.6891 15.8552 23.7255 15.8366 23.7578C15.8143 23.7982 15.777 23.8346 15.7398 23.8588C15.6913 23.8911 15.6354 23.8992 15.5796 23.8992C15.5013 23.8992 15.4305 23.875 15.3709 23.8184C15.3039 23.7578 15.2741 23.6689 15.2741 23.5759V21.0301C15.2741 21.0019 15.2778 20.9776 15.2815 20.9534C15.289 20.9089 15.3039 20.8725 15.3262 20.8362C15.3523 20.7958 15.3858 20.7634 15.4231 20.7432C15.4715 20.7149 15.5237 20.7028 15.5796 20.7028C15.6354 20.7028 15.6913 20.7149 15.7398 20.7432C15.777 20.7715 15.8143 20.8038 15.8366 20.8483C15.8552 20.8806 15.8664 20.913 15.8739 20.9534C15.8776 20.9776 15.8813 21.0019 15.8813 21.0301V23.5759ZM12.1112 23.2446H13.2251C13.2475 23.2446 13.2698 23.2486 13.2885 23.2486C13.3257 23.2567 13.363 23.2688 13.3928 23.2931C13.43 23.3173 13.4598 23.3537 13.4784 23.3981C13.5045 23.4466 13.512 23.5032 13.512 23.5557C13.512 23.6163 13.5008 23.6729 13.4747 23.7214C13.4561 23.7618 13.43 23.7982 13.3928 23.8224C13.363 23.8467 13.3257 23.8628 13.2847 23.8709C13.2661 23.8709 13.2475 23.875 13.2251 23.875H11.7983C11.7685 23.875 11.7424 23.8709 11.7126 23.8669C11.6754 23.8588 11.6381 23.8426 11.6046 23.8184C11.5673 23.7861 11.5375 23.7497 11.5189 23.7052C11.5003 23.6527 11.4928 23.6002 11.4928 23.5476V21.0261C11.4928 20.9978 11.4965 20.9736 11.504 20.9493C11.5114 20.9089 11.5263 20.8685 11.545 20.8362C11.571 20.7958 11.6083 20.7634 11.6456 20.7392C11.694 20.7149 11.7499 20.7028 11.802 20.7028C11.8542 20.7028 11.9101 20.7149 11.9585 20.7392C11.9957 20.7634 12.0293 20.7917 12.0553 20.8321C12.0777 20.8645 12.0963 20.9049 12.1038 20.9493C12.1075 20.9736 12.1112 20.9978 12.1112 21.0261V23.2446ZM8.32996 23.2446H9.44385C9.46621 23.2446 9.48856 23.2486 9.50718 23.2486C9.54444 23.2567 9.58169 23.2688 9.6115 23.2931C9.64875 23.3173 9.67855 23.3537 9.7009 23.3981C9.72326 23.4466 9.73071 23.5032 9.73071 23.5557C9.73071 23.6163 9.72326 23.6729 9.69718 23.7214C9.67483 23.7618 9.64875 23.7982 9.61522 23.8224C9.58169 23.8467 9.54444 23.8628 9.50718 23.8709C9.48483 23.8709 9.46621 23.875 9.44385 23.875H8.01703C7.99095 23.875 7.96115 23.8709 7.93507 23.8669C7.89409 23.8588 7.85684 23.8426 7.82331 23.8184C7.78606 23.7861 7.75998 23.7497 7.74135 23.7052C7.719 23.6527 7.71527 23.6002 7.71527 23.5476V21.0261C7.71527 20.9978 7.719 20.9736 7.72272 20.9493C7.73018 20.9089 7.74508 20.8725 7.76743 20.8362C7.78978 20.7958 7.82704 20.7634 7.86802 20.7392C7.91272 20.7149 7.9686 20.7028 8.02076 20.7028C8.07664 20.7028 8.12879 20.7149 8.17722 20.7392C8.21448 20.7634 8.25173 20.7917 8.27408 20.8321C8.30016 20.8645 8.31506 20.9049 8.32251 20.9493C8.32624 20.9736 8.32996 20.9978 8.32996 21.0261V23.2446ZM5.55828 23.5759C5.55828 23.6002 5.55455 23.6244 5.55083 23.6527C5.54337 23.6891 5.52847 23.7255 5.50985 23.7578C5.48749 23.8022 5.45396 23.8346 5.41299 23.8588C5.36456 23.8911 5.30867 23.8992 5.25279 23.8992C5.17456 23.8992 5.10378 23.875 5.04417 23.8184C4.97712 23.7578 4.95104 23.6689 4.95104 23.5759V21.0301C4.95104 21.0019 4.95104 20.9776 4.95849 20.9493C4.96221 20.9089 4.98084 20.8725 4.99947 20.8362C5.02555 20.7958 5.05907 20.7634 5.09633 20.7432C5.14476 20.7149 5.20064 20.7028 5.25279 20.7028C5.30867 20.7028 5.36456 20.7149 5.41299 20.7432C5.45396 20.7715 5.48749 20.8038 5.50985 20.8483C5.52847 20.8806 5.54337 20.913 5.55083 20.9534C5.55455 20.9776 5.55828 21.0019 5.55828 21.0301V23.5759ZM2.2017 22.2707L1.6727 23.7174C1.6578 23.7618 1.63544 23.7982 1.60564 23.8305C1.54976 23.8911 1.46408 23.8992 1.38957 23.8992C1.31879 23.8992 1.24055 23.8871 1.1884 23.8305C1.15487 23.7982 1.12879 23.7618 1.11389 23.7174L0.58116 22.2586L0.599787 23.58C0.599787 23.6083 0.596062 23.6325 0.592336 23.6608C0.584886 23.6972 0.569984 23.7335 0.551357 23.7659C0.529005 23.8063 0.495476 23.8386 0.454497 23.8628C0.409792 23.8911 0.357637 23.8992 0.305482 23.8992C0.253326 23.8992 0.201171 23.8911 0.152741 23.8669C0.111762 23.8467 0.0745077 23.8144 0.04843 23.7699C0.0298031 23.7376 0.0149015 23.7012 0.00745077 23.6648C0.00372539 23.6365 0 23.6123 0 23.5881V21.0342C0 21.0019 0.00372539 20.9655 0.0111762 20.9332C0.0223523 20.8847 0.04843 20.8402 0.0819585 20.7998C0.137839 20.7392 0.108036 20.7756 0.163917 20.7432C0.223523 20.7069 0.305482 20.6988 0.376264 20.6988C0.458222 20.6988 0.562533 20.7069 0.62959 20.7675C0.670569 20.8079 0.704098 20.8564 0.72645 20.913L1.40447 22.8001L2.07131 20.913C2.09367 20.8604 2.1272 20.8119 2.16817 20.7715C2.23523 20.7109 2.33954 20.6988 2.42523 20.6988C2.48111 20.6988 2.54444 20.7069 2.59659 20.7271C2.64502 20.7432 2.68973 20.7715 2.72326 20.8079C2.75306 20.8443 2.77541 20.8887 2.78659 20.9332C2.79404 20.9655 2.79776 21.0019 2.79776 21.0342V23.584C2.79776 23.6083 2.79404 23.6365 2.78659 23.6608C2.77914 23.6972 2.76796 23.7335 2.74933 23.7659C2.72326 23.8063 2.68973 23.8386 2.65247 23.8628C2.60404 23.8911 2.54816 23.8992 2.49601 23.8992C2.4215 23.8992 2.34699 23.879 2.28739 23.8265C2.22033 23.7659 2.19053 23.677 2.19053 23.58L2.2017 22.2707ZM30.0974 21.9636C30.0899 21.9232 30.0788 21.8787 30.0639 21.8383C30.0266 21.7292 29.9745 21.6242 29.9037 21.5353C29.8366 21.4585 29.7584 21.3979 29.669 21.3575C29.5758 21.313 29.4753 21.2928 29.3747 21.2928C29.2704 21.2928 29.1698 21.313 29.0766 21.3615C28.9872 21.4019 28.909 21.4666 28.8419 21.5474C28.8196 21.5757 28.7972 21.5959 28.7712 21.6161C28.7414 21.6363 28.7078 21.6524 28.6743 21.6605C28.6296 21.6726 28.5849 21.6686 28.5402 21.6565C28.488 21.6403 28.4433 21.608 28.4023 21.5635C28.3651 21.5231 28.339 21.4746 28.3241 21.4221C28.3055 21.3575 28.3055 21.2847 28.3316 21.2201C28.3502 21.1797 28.3725 21.1433 28.4023 21.1069C28.529 20.9695 28.678 20.8645 28.8457 20.7917C29.017 20.719 29.1958 20.6826 29.3784 20.6826C29.4827 20.6826 29.587 20.6988 29.6913 20.7149C29.8366 20.7432 29.9745 20.7998 30.1011 20.8806C30.2427 20.9695 30.3693 21.0867 30.4662 21.2281C30.5482 21.3534 30.6152 21.4827 30.6636 21.6282C30.7009 21.7494 30.7307 21.8747 30.7419 22.004C30.7493 22.0969 30.7568 22.1899 30.7568 22.2828C30.7568 22.4283 30.7456 22.5738 30.7158 22.7152C30.686 22.8809 30.6301 23.0385 30.5556 23.188C30.4811 23.3294 30.3842 23.4587 30.2725 23.5679C30.1533 23.681 30.0192 23.7659 29.8739 23.8224C29.7174 23.8871 29.5535 23.9154 29.3858 23.9154C29.1996 23.9154 29.017 23.883 28.8457 23.8144C28.6743 23.7457 28.5253 23.6406 28.3986 23.4992C28.2645 23.3577 28.1676 23.1799 28.1006 22.99C28.0224 22.7718 27.9963 22.5374 27.9963 22.303C27.9963 22.2909 27.9963 22.2828 27.9963 22.2748C27.9963 22.1656 28.0298 22.0687 28.1192 22.0121C28.1453 21.9919 28.1788 21.9798 28.2086 21.9717C28.231 21.9676 28.2533 21.9636 28.2757 21.9636H30.0974ZM39.6083 21.9636C39.6009 21.9232 39.5897 21.8787 39.5748 21.8383C39.5375 21.7292 39.4854 21.6242 39.4109 21.5353C39.3475 21.4585 39.2693 21.3979 39.1799 21.3575C39.083 21.313 38.9862 21.2928 38.8819 21.2928C38.7813 21.2928 38.6807 21.313 38.5875 21.3615C38.4944 21.4019 38.4162 21.4666 38.3528 21.5474C38.3305 21.5757 38.3081 21.5959 38.2783 21.6161C38.2523 21.6363 38.2187 21.6524 38.1852 21.6605C38.1405 21.6726 38.0958 21.6686 38.0511 21.6565C37.9952 21.6403 37.9505 21.608 37.9132 21.5635C37.876 21.5231 37.8499 21.4746 37.835 21.4221C37.8164 21.3575 37.8127 21.2847 37.8387 21.2201C37.8574 21.1797 37.8834 21.1433 37.9132 21.1069C38.0399 20.9695 38.1889 20.8645 38.3528 20.7917C38.5242 20.719 38.703 20.6826 38.8856 20.6826C38.9936 20.6826 39.0979 20.6988 39.2022 20.7149C39.3475 20.7432 39.4854 20.7998 39.612 20.8806C39.7536 20.9695 39.8765 21.0867 39.9771 21.2281C40.0591 21.3494 40.1261 21.4827 40.1708 21.6282C40.2118 21.7494 40.2379 21.8747 40.2491 22.004C40.2602 22.0969 40.2677 22.1899 40.2677 22.2828C40.2677 22.4283 40.2528 22.5738 40.2267 22.7152C40.1932 22.8809 40.141 23.0385 40.0628 23.188C39.9883 23.3294 39.8952 23.4587 39.7797 23.5679C39.6642 23.681 39.5301 23.7659 39.3848 23.8224C39.2283 23.8871 39.0607 23.9154 38.893 23.9154C38.7105 23.9154 38.5279 23.883 38.3528 23.8144C38.1852 23.7457 38.0325 23.6406 37.9058 23.4992C37.7754 23.3577 37.6786 23.1799 37.6115 22.99C37.5333 22.7718 37.5035 22.5374 37.5035 22.303C37.5035 22.2909 37.5035 22.2828 37.5035 22.2748C37.5035 22.1656 37.537 22.0687 37.6264 22.0121C37.6562 21.9919 37.686 21.9798 37.7195 21.9717C37.7419 21.9676 37.7642 21.9636 37.7866 21.9636H39.6083ZM62.6461 21.9636C62.6386 21.9232 62.6275 21.8787 62.6126 21.8383C62.5753 21.7292 62.5231 21.6242 62.4524 21.5353C62.3853 21.4585 62.3071 21.3979 62.2177 21.3575C62.1245 21.313 62.0239 21.2928 61.9234 21.2928C61.819 21.2928 61.7185 21.313 61.6253 21.3615C61.5322 21.4019 61.4577 21.4666 61.3906 21.5474C61.3683 21.5757 61.3459 21.5959 61.3161 21.6161C61.29 21.6363 61.2565 21.6524 61.223 21.6605C61.1783 21.6726 61.1336 21.6686 61.0889 21.6565C61.0367 21.6403 60.9883 21.608 60.951 21.5635C60.9138 21.5231 60.8877 21.4746 60.8728 21.4221C60.8542 21.3575 60.8542 21.2847 60.8803 21.2201C60.8952 21.1797 60.9212 21.1433 60.951 21.1069C61.0777 20.9695 61.2267 20.8645 61.3944 20.7917C61.562 20.719 61.7445 20.6826 61.9271 20.6826C62.0314 20.6826 62.1357 20.6988 62.24 20.7149C62.3853 20.7432 62.5231 20.7998 62.6498 20.8806C62.7914 20.9695 62.918 21.0867 63.0149 21.2281C63.0969 21.3534 63.1639 21.4827 63.2086 21.6282C63.2496 21.7494 63.2794 21.8747 63.2906 22.004C63.298 22.0969 63.3055 22.1899 63.3055 22.2828C63.3055 22.4283 63.2943 22.5738 63.2645 22.7152C63.231 22.8809 63.1788 23.0385 63.1043 23.188C63.0298 23.3294 62.9329 23.4587 62.8212 23.5679C62.702 23.681 62.5679 23.7659 62.4226 23.8224C62.2661 23.8871 62.0985 23.9154 61.9345 23.9154C61.7483 23.9154 61.5657 23.883 61.3906 23.8144C61.223 23.7457 61.0702 23.6406 60.9436 23.4992C60.8132 23.3577 60.7163 23.1799 60.6493 22.99C60.571 22.7718 60.5412 22.5374 60.5412 22.303C60.5412 22.2909 60.5412 22.2828 60.5412 22.2748C60.545 22.1656 60.5748 22.0687 60.6679 22.0121C60.694 21.9919 60.7238 21.9798 60.7573 21.9717C60.7797 21.9676 60.802 21.9636 60.8244 21.9636H62.6461ZM5.25279 19.8623C5.43161 19.8623 5.5769 20.0199 5.5769 20.2139C5.5769 20.4038 5.43161 20.5614 5.25279 20.5614C5.07398 20.5614 4.92869 20.4038 4.92869 20.2139C4.92869 20.0199 5.07398 19.8623 5.25279 19.8623ZM15.5796 19.8623C15.7584 19.8623 15.8999 20.0199 15.8999 20.2139C15.8999 20.4038 15.7584 20.5614 15.5796 20.5614C15.4007 20.5614 15.2555 20.4038 15.2555 20.2139C15.2555 20.0199 15.4007 19.8623 15.5796 19.8623ZM69.6759 19.8623C69.8547 19.8623 70 20.0199 70 20.2139C70 20.4038 69.8547 20.5614 69.6759 20.5614C69.5008 20.5614 69.3555 20.4038 69.3555 20.2139C69.3555 20.0199 69.5008 19.8623 69.6759 19.8623ZM54.3348 22.7597C54.3497 22.7152 54.3608 22.6748 54.372 22.6304C54.3981 22.5132 54.4093 22.3919 54.4093 22.2707C54.4093 22.1252 54.3944 21.9838 54.3497 21.8464C54.3161 21.7373 54.264 21.6322 54.1932 21.5433C54.1261 21.4625 54.0479 21.3979 53.9585 21.3575C53.8616 21.309 53.761 21.2888 53.6567 21.2888C53.5561 21.2888 53.4593 21.313 53.3661 21.3534C53.2767 21.3979 53.1985 21.4585 53.1315 21.5393C53.0607 21.6322 53.0085 21.7413 52.9713 21.8545C52.9228 21.9959 52.9079 22.1495 52.9079 22.299C52.9079 22.4364 52.9228 22.5778 52.9601 22.7152C52.9899 22.8284 53.0346 22.9375 53.1054 23.0304C53.1687 23.1153 53.2469 23.184 53.3401 23.2325C53.4369 23.285 53.5487 23.3052 53.6605 23.3052C53.7387 23.3052 53.8318 23.2971 53.9026 23.2607C53.9175 23.2567 53.9287 23.2486 53.9436 23.2446L53.884 23.1799C53.8393 23.1314 53.8132 23.0668 53.8132 22.9981C53.8132 22.9496 53.8244 22.9051 53.843 22.8647C53.8616 22.8284 53.884 22.796 53.9063 22.7677C53.9361 22.7354 53.9697 22.7071 54.0032 22.6869C54.0442 22.6627 54.0889 22.6506 54.1373 22.6506C54.2044 22.6506 54.1597 22.6384 54.2267 22.6708C54.2491 22.6829 54.2677 22.695 54.2863 22.7071L54.2975 22.7152L54.3348 22.7597ZM49.7712 22.2667C49.7712 22.1212 49.7563 21.9757 49.7078 21.8383C49.6706 21.7292 49.6184 21.6242 49.5476 21.5353C49.4806 21.4585 49.4023 21.3979 49.3129 21.3575C49.2198 21.313 49.1192 21.2928 49.0186 21.2928C48.9143 21.2928 48.8175 21.313 48.7206 21.3615C48.6312 21.4019 48.553 21.4666 48.4859 21.5474C48.4151 21.6363 48.363 21.7454 48.3294 21.8585C48.2847 21.9919 48.2698 22.1374 48.2698 22.2828C48.2698 22.4323 48.2847 22.5859 48.3257 22.7314C48.3592 22.8445 48.4114 22.9536 48.4822 23.0466C48.5455 23.1314 48.62 23.192 48.7094 23.2365C48.8063 23.2809 48.9106 23.3012 49.0149 23.3012C49.1378 23.3012 49.2608 23.2809 49.3688 23.2123C49.4619 23.1516 49.5402 23.0708 49.5998 22.9738C49.6594 22.8728 49.7041 22.7597 49.7302 22.6384C49.7563 22.5172 49.7712 22.3919 49.7712 22.2667ZM24.3044 23.2567H24.4423C24.5577 23.2567 24.6695 23.2527 24.785 23.2486C24.8707 23.2446 24.9564 23.2325 25.042 23.2082C25.1054 23.188 25.1687 23.1597 25.2246 23.1112C25.2842 23.0627 25.3326 22.9981 25.3699 22.9253C25.3997 22.8769 25.422 22.8243 25.4369 22.7677C25.4518 22.7071 25.4667 22.6465 25.4779 22.5859C25.4891 22.5293 25.4928 22.4728 25.4965 22.4162C25.5003 22.3677 25.504 22.3192 25.504 22.2707C25.504 22.1656 25.4928 22.0646 25.4779 21.9636C25.4593 21.8626 25.4295 21.7696 25.3848 21.6807C25.3512 21.6161 25.314 21.5595 25.2618 21.5151C25.2171 21.4746 25.1687 21.4383 25.1166 21.414C25.0681 21.3938 25.0197 21.3777 24.9675 21.3696C24.9117 21.3615 24.8595 21.3534 24.8036 21.3453C24.7589 21.3413 24.7142 21.3413 24.6732 21.3413C24.6136 21.3413 24.5577 21.3413 24.4981 21.3413H24.3044V23.2567ZM21.0857 22.2667C21.0857 22.1212 21.0708 21.9757 21.0261 21.8383C20.9888 21.7292 20.9367 21.6242 20.8622 21.5353C20.7951 21.4585 20.7206 21.3979 20.6275 21.3575C20.5343 21.313 20.4337 21.2928 20.3332 21.2928C20.2288 21.2928 20.132 21.313 20.0351 21.3615C19.9457 21.4019 19.8675 21.4666 19.8004 21.5474C19.7296 21.6363 19.6775 21.7454 19.644 21.8585C19.5993 21.9919 19.5844 22.1374 19.5844 22.2828C19.5844 22.4323 19.5993 22.5859 19.6402 22.7314C19.6775 22.8445 19.7259 22.9536 19.7967 23.0466C19.86 23.1314 19.9345 23.192 20.0239 23.2365C20.1208 23.2809 20.2251 23.3012 20.3294 23.3012C20.4524 23.3012 20.5753 23.2809 20.6833 23.2123C20.7765 23.1516 20.8547 23.0708 20.9143 22.9738C20.9739 22.8728 21.0186 22.7597 21.0447 22.6384C21.0708 22.5172 21.0857 22.3919 21.0857 22.2667ZM30.0974 22.5778H28.6482C28.6557 22.6304 28.6668 22.6829 28.6817 22.7314C28.7153 22.8445 28.7674 22.9536 28.8382 23.0466C28.9015 23.1314 28.9761 23.192 29.0655 23.2365C29.1623 23.2809 29.2666 23.3012 29.3709 23.3012C29.4939 23.3012 29.6168 23.2809 29.7249 23.2123C29.818 23.1516 29.8962 23.0708 29.9558 22.9738C30.0154 22.8728 30.0601 22.7597 30.0862 22.6384C30.0899 22.6182 30.0937 22.598 30.0974 22.5778ZM39.6083 22.5778H38.1554C38.1666 22.6304 38.1778 22.6829 38.1927 22.7314C38.2262 22.8445 38.2746 22.9536 38.3454 23.0466C38.4087 23.1314 38.487 23.192 38.5764 23.2365C38.6732 23.2809 38.7738 23.3012 38.8781 23.3012C39.0011 23.3012 39.1277 23.2809 39.232 23.2123C39.3252 23.1516 39.4034 23.0708 39.463 22.9738C39.5263 22.8728 39.5673 22.7597 39.5934 22.6384C39.5971 22.6182 39.6046 22.598 39.6083 22.5778ZM62.6461 22.5778H61.1969C61.2044 22.6304 61.2155 22.6829 61.2304 22.7314C61.264 22.8445 61.3124 22.9536 61.3832 23.0466C61.4465 23.1314 61.5247 23.192 61.6142 23.2365C61.711 23.2809 61.8116 23.3012 61.9196 23.3012C62.0388 23.3012 62.1655 23.2809 62.2698 23.2123C62.363 23.1516 62.4412 23.0708 62.5008 22.9738C62.5641 22.8728 62.6088 22.7597 62.6349 22.6384C62.6386 22.6182 62.6424 22.598 62.6461 22.5778Z" fill="#D1010F"/>
</svg>
