<svg width="40" height="40" viewBox="0 0 40 40" fill="none" xmlns="http://www.w3.org/2000/svg">
<path fill-rule="evenodd" clip-rule="evenodd" d="M17.2226 5.14082C17.2224 5.14089 17.2228 5.14075 17.2226 5.14082L7.93392 8.94297C7.57216 9.08861 7.17577 9.41621 6.86487 9.87869C6.55375 10.3415 6.40039 10.832 6.40039 11.2167V18.5334C6.40039 26.1005 11.9211 33.2547 19.4809 35.3446C19.8146 35.4352 20.1862 35.4353 20.5199 35.3446C28.0797 33.2547 33.6004 26.1005 33.6004 18.5334L33.6004 18.5306L33.6171 11.2167C33.6171 11.2163 33.6171 11.2171 33.6171 11.2167C33.6168 10.8367 33.4623 10.3464 33.148 9.88108C32.8334 9.41552 32.4346 9.08616 32.0783 8.94081L22.7948 5.14082C22.7945 5.14069 22.7952 5.14096 22.7948 5.14082C21.0146 4.41479 19.0028 4.41467 17.2226 5.14082ZM16.2782 2.82607C18.6642 1.85257 21.3532 1.85257 23.7393 2.82607L33.0225 6.62598C33.9322 6.99745 34.6926 7.70168 35.2195 8.48154C35.7465 9.26159 36.1171 10.2302 36.1171 11.2167L36.1171 11.2196L36.1004 18.5334C36.1004 18.5339 36.1004 18.5329 36.1004 18.5334C36.0997 27.265 29.7885 35.3774 21.1833 37.7549L21.1793 37.756C20.414 37.9648 19.5868 37.9648 18.8215 37.756L18.8175 37.7549C10.2118 35.3773 3.90039 27.2656 3.90039 18.5334V11.2167C3.90039 10.2347 4.26371 9.26696 4.79011 8.48393C5.31601 7.70162 6.07666 6.99674 6.99658 6.62532L16.2782 2.82607Z" fill="#B1294A"/>
<path fill-rule="evenodd" clip-rule="evenodd" d="M20.0003 15.4167C18.8497 15.4167 17.917 16.3495 17.917 17.5001C17.917 18.6507 18.8497 19.5834 20.0003 19.5834C21.1509 19.5834 22.0837 18.6507 22.0837 17.5001C22.0837 16.3495 21.1509 15.4167 20.0003 15.4167ZM15.417 17.5001C15.417 14.9688 17.469 12.9167 20.0003 12.9167C22.5316 12.9167 24.5837 14.9688 24.5837 17.5001C24.5837 20.0314 22.5316 22.0834 20.0003 22.0834C17.469 22.0834 15.417 20.0314 15.417 17.5001Z" fill="#B1294A"/>
<path fill-rule="evenodd" clip-rule="evenodd" d="M20 19.5835C20.6904 19.5835 21.25 20.1431 21.25 20.8335V25.8335C21.25 26.5239 20.6904 27.0835 20 27.0835C19.3096 27.0835 18.75 26.5239 18.75 25.8335V20.8335C18.75 20.1431 19.3096 19.5835 20 19.5835Z" fill="#B1294A"/>
</svg>
