<svg width="20" height="17" viewBox="0 0 20 17" fill="none" xmlns="http://www.w3.org/2000/svg">
<path d="M20 2.02939C19.2511 2.36804 18.4567 2.59034 17.6433 2.68887C18.4905 2.17053 19.1411 1.34972 19.4474 0.37173C18.642 0.859597 17.7608 1.20333 16.8419 1.38808C16.0934 0.574122 15.027 0.0654297 13.8468 0.0654297C11.5807 0.0654297 9.74344 1.94071 9.74344 4.25363C9.74344 4.58194 9.77977 4.90155 9.84969 5.20817C6.43953 5.03345 3.41609 3.36607 1.39227 0.832096C1.03914 1.45068 0.836797 2.17021 0.836797 2.93768C0.836797 4.39079 1.56125 5.67269 2.66219 6.4238C2.01059 6.40297 1.37332 6.22333 0.803594 5.89988C0.803359 5.91742 0.803359 5.93497 0.803359 5.95259C0.803359 7.98186 2.21773 9.67468 4.09477 10.0594C3.49054 10.2272 2.85674 10.2517 2.2418 10.1312C2.76391 11.7952 4.2793 13.006 6.07477 13.0399C4.67047 14.1632 2.90117 14.8328 0.978828 14.8328C0.647578 14.8328 0.321016 14.813 0 14.7743C1.81586 15.9626 3.97266 16.656 6.28984 16.656C13.8373 16.656 17.9644 10.274 17.9644 4.73935C17.9644 4.55769 17.9605 4.37707 17.9525 4.19749C18.7558 3.60473 19.4492 2.87055 20 2.02939Z" fill="white"/>
</svg>
