<svg width="28" height="36" viewBox="0 0 28 36" fill="none" xmlns="http://www.w3.org/2000/svg">
<path fill-rule="evenodd" clip-rule="evenodd" d="M19.5729 1.71491C19.8278 2.33163 19.9336 3.06949 19.9336 3.86675V14.6167H23.8336C25.157 14.6167 26.5848 15.0216 27.1603 16.296C27.7361 17.5709 27.0942 18.9072 26.2205 19.8942C26.2201 19.8946 26.2197 19.8951 26.2193 19.8955L13.6052 34.226C13.0785 34.8239 12.5114 35.3079 11.9133 35.6029C11.3099 35.9005 10.5772 36.0473 9.85048 35.7745C9.12304 35.5014 8.6682 34.908 8.41086 34.2853C8.15603 33.6685 8.05024 32.9307 8.05024 32.1334V21.3834H4.15024C2.83607 21.3834 1.41297 20.9833 0.83672 19.7119C0.261733 18.4433 0.893859 17.1077 1.75621 16.1141L1.76193 16.1075L14.3786 1.77418C14.9053 1.17629 15.4724 0.692251 16.0705 0.397247C16.6739 0.0996257 17.4066 -0.0471722 18.1333 0.225669C18.8608 0.49877 19.3156 1.09213 19.5729 1.71491ZM16.2552 3.42599C16.6533 2.97413 16.9698 2.74122 17.1763 2.63938C17.199 2.62819 17.2191 2.61915 17.2366 2.61185C17.2446 2.62826 17.2532 2.64741 17.2624 2.66963C17.3498 2.88103 17.4336 3.26401 17.4336 3.86675V15.8667C17.4336 16.5571 17.9932 17.1168 18.6836 17.1168H23.8336C24.3035 17.1168 24.5996 17.1908 24.7616 17.2628C24.8223 17.2898 24.8571 17.3127 24.8756 17.3275C24.8744 17.3509 24.8686 17.3913 24.8491 17.453C24.7964 17.6202 24.6571 17.8888 24.3478 18.238L24.3453 18.2408L11.729 32.5738C11.3307 33.0259 11.014 33.2589 10.8075 33.3608C10.7848 33.372 10.7648 33.381 10.7472 33.3883C10.7392 33.3719 10.7306 33.3528 10.7214 33.3305C10.634 33.1191 10.5502 32.7362 10.5502 32.1334V20.1334C10.5502 19.4431 9.99059 18.8834 9.30024 18.8834H4.15024C3.68378 18.8834 3.39061 18.8102 3.23059 18.7393C3.17194 18.7132 3.13799 18.6911 3.11969 18.6767C3.12078 18.6529 3.12643 18.6114 3.14614 18.5476C3.19841 18.3783 3.33641 18.1081 3.64163 17.7558L16.2552 3.42599C16.2553 3.42586 16.2551 3.42612 16.2552 3.42599Z" fill="#B1294A"/>
</svg>
