<svg width="40" height="40" viewBox="0 0 40 40" fill="none" xmlns="http://www.w3.org/2000/svg">
<path fill-rule="evenodd" clip-rule="evenodd" d="M31.0688 20.7227C24.3521 15.5368 15.6632 15.5368 8.94659 20.7227C8.40016 21.1446 7.61517 21.0436 7.19327 20.4972C6.77137 19.9507 6.87233 19.1657 7.41876 18.7438C15.0354 12.8631 24.9799 12.8631 32.5966 18.7438C33.143 19.1657 33.244 19.9507 32.8221 20.4972C32.4002 21.0436 31.6152 21.1446 31.0688 20.7227Z" fill="#B1294A"/>
<path fill-rule="evenodd" clip-rule="evenodd" d="M35.9024 14.9226C26.2524 7.47014 13.747 7.47014 4.0971 14.9226C3.55071 15.3445 2.76571 15.2437 2.34375 14.6973C1.92178 14.1509 2.02265 13.3659 2.56904 12.9439C13.1191 4.79636 26.8804 4.79636 37.4304 12.9439C37.9768 13.3659 38.0777 14.1509 37.6557 14.6973C37.2338 15.2437 36.4488 15.3445 35.9024 14.9226Z" fill="#B1294A"/>
<path fill-rule="evenodd" clip-rule="evenodd" d="M27.901 26.8048C23.1016 23.0872 16.8813 23.0872 12.0819 26.8048C11.5362 27.2276 10.751 27.1278 10.3283 26.5821C9.9055 26.0363 10.0052 25.2512 10.551 24.8284C16.2516 20.4127 23.7313 20.4127 29.4319 24.8284C29.9777 25.2512 30.0774 26.0363 29.6547 26.5821C29.2319 27.1278 28.4468 27.2276 27.901 26.8048Z" fill="#B1294A"/>
<path fill-rule="evenodd" clip-rule="evenodd" d="M23.5855 32.906C21.4022 31.2201 18.6133 31.2201 16.43 32.906C15.8836 33.3279 15.0986 33.227 14.6767 32.6806C14.2548 32.1341 14.3557 31.3491 14.9021 30.9272C17.9855 28.5464 22.03 28.5464 25.1134 30.9272C25.6598 31.3491 25.7607 32.1341 25.3388 32.6806C24.9169 33.227 24.1319 33.3279 23.5855 32.906Z" fill="#B1294A"/>
</svg>
