<svg width="20" height="20" viewBox="0 0 20 20" fill="none" xmlns="http://www.w3.org/2000/svg">
<path fill-rule="evenodd" clip-rule="evenodd" d="M15.5344 10.3614C12.1761 7.76845 7.83162 7.76845 4.4733 10.3614C4.20008 10.5723 3.80758 10.5219 3.59663 10.2486C3.38568 9.97543 3.43616 9.58293 3.70938 9.37198C7.51772 6.43159 12.49 6.43159 16.2983 9.37198C16.5715 9.58293 16.622 9.97543 16.411 10.2486C16.2001 10.5219 15.8076 10.5723 15.5344 10.3614Z" fill="#4D4D4D"/>
<path fill-rule="evenodd" clip-rule="evenodd" d="M17.9512 7.46132C13.1262 3.7351 6.87352 3.7351 2.04855 7.46132C1.77536 7.6723 1.38285 7.62186 1.17187 7.34867C0.960892 7.07548 1.01133 6.68298 1.28452 6.472C6.55955 2.39821 13.4402 2.39821 18.7152 6.472C18.9884 6.68298 19.0388 7.07548 18.8279 7.34867C18.6169 7.62186 18.2244 7.6723 17.9512 7.46132Z" fill="#4D4D4D"/>
<path fill-rule="evenodd" clip-rule="evenodd" d="M13.9505 13.4025C11.5508 11.5437 8.44066 11.5437 6.04097 13.4025C5.76808 13.6138 5.37551 13.564 5.16413 13.2911C4.95275 13.0182 5.00261 12.6256 5.2755 12.4143C8.12581 10.2064 11.8657 10.2064 14.716 12.4143C14.9889 12.6256 15.0387 13.0182 14.8273 13.2911C14.616 13.564 14.2234 13.6138 13.9505 13.4025Z" fill="#4D4D4D"/>
<path fill-rule="evenodd" clip-rule="evenodd" d="M11.7927 16.453C10.7011 15.6101 9.30667 15.6101 8.21501 16.453C7.9418 16.664 7.54931 16.6135 7.33835 16.3403C7.12739 16.0671 7.17785 15.6746 7.45106 15.4636C8.99274 14.2732 11.015 14.2732 12.5567 15.4636C12.8299 15.6746 12.8804 16.0671 12.6694 16.3403C12.4584 16.6135 12.0659 16.664 11.7927 16.453Z" fill="#4D4D4D"/>
</svg>
