<svg width="20" height="20" viewBox="0 0 20 20" fill="none" xmlns="http://www.w3.org/2000/svg">
<path fill-rule="evenodd" clip-rule="evenodd" d="M15.5347 10.3613C12.1764 7.76839 7.83193 7.76839 4.4736 10.3613C4.20038 10.5723 3.80789 10.5218 3.59694 10.2486C3.38599 9.97537 3.43647 9.58287 3.70969 9.37192C7.51803 6.43153 12.4903 6.43153 16.2986 9.37192C16.5718 9.58287 16.6223 9.97537 16.4114 10.2486C16.2004 10.5218 15.8079 10.5723 15.5347 10.3613Z" fill="white"/>
<path fill-rule="evenodd" clip-rule="evenodd" d="M17.9513 7.46129C13.1263 3.73507 6.87364 3.73507 2.04867 7.46129C1.77548 7.67227 1.38298 7.62183 1.172 7.34864C0.961014 7.07545 1.01145 6.68295 1.28464 6.47197C6.55967 2.39818 13.4403 2.39818 18.7153 6.47197C18.9885 6.68295 19.039 7.07545 18.828 7.34864C18.617 7.62183 18.2245 7.67227 17.9513 7.46129Z" fill="white"/>
<path fill-rule="evenodd" clip-rule="evenodd" d="M13.9506 13.4024C11.5509 11.5436 8.44072 11.5436 6.04103 13.4024C5.76814 13.6138 5.37557 13.5639 5.16419 13.291C4.95281 13.0181 5.00267 12.6256 5.27556 12.4142C8.12587 10.2063 11.8657 10.2063 14.716 12.4142C14.9889 12.6256 15.0388 13.0181 14.8274 13.291C14.616 13.5639 14.2234 13.6138 13.9506 13.4024Z" fill="white"/>
<path fill-rule="evenodd" clip-rule="evenodd" d="M11.793 16.453C10.7014 15.6101 9.30697 15.6101 8.21532 16.453C7.94211 16.664 7.54961 16.6135 7.33865 16.3403C7.12769 16.0671 7.17816 15.6746 7.45137 15.4636C8.99305 14.2732 11.0153 14.2732 12.557 15.4636C12.8302 15.6746 12.8807 16.0671 12.6697 16.3403C12.4587 16.6135 12.0662 16.664 11.793 16.453Z" fill="white"/>
</svg>
